<svg id="Mode_Isolation" data-name="Mode Isolation" xmlns="http://www.w3.org/2000/svg" viewBox="0 0 81.44 49.96"><defs><style>.cls-1{fill:#a1a1a1;}</style></defs><title>02_PAROLES_EXPERTS</title><path class="cls-1" d="M44.63,44a7.15,7.15,0,0,0-.42-1.61h0c-.87-3-2.9-8-7.18-11.22a11.58,11.58,0,0,0-3.9-1.78A21.55,21.55,0,0,0,30,28.77a10.17,10.17,0,1,0-7.27,0,21,21,0,0,0-3.1.63,12.49,12.49,0,0,0-4.3,2.1c-4,3.17-6,8-6.84,10.84A12.82,12.82,0,0,0,8,44.77c0,.22,0,.43,0,.64,0,3,9.2,4.54,18.4,4.54h0c9.2,0,18.41-1.51,18.41-4.54,0-.21,0-.43,0-.64A3.42,3.42,0,0,0,44.63,44ZM26.34,29.45a10.19,10.19,0,0,0,2.51-.31l-1.33,2.51H25l-1.19-2.52A10.18,10.18,0,0,0,26.34,29.45Zm0,19.35-2.82-3.46,1.46-13h2.55l1.64,12.84Z"/><path class="cls-1" d="M70.92.12h-26a2.67,2.67,0,0,0-2.67,2.67V20.12a2.67,2.67,0,0,0,2.67,2.67h1.71v5.32A12.37,12.37,0,0,0,52,22.79H70.92a2.67,2.67,0,0,0,2.67-2.67V2.79A2.67,2.67,0,0,0,70.92.12ZM49,12.62a1.54,1.54,0,1,1,1.54-1.54A1.54,1.54,0,0,1,49,12.62Zm8.93,0a1.54,1.54,0,1,1,1.54-1.54A1.54,1.54,0,0,1,57.91,12.62Zm8.93,0a1.54,1.54,0,1,1,1.54-1.54A1.54,1.54,0,0,1,66.84,12.62Z"/></svg>