<svg id="Mode_Isolation" data-name="Mode Isolation" xmlns="http://www.w3.org/2000/svg" viewBox="0 0 81.44 49.96"><defs><style>.cls-1{fill:#999;fill-rule:evenodd;}</style></defs><title>04_FLOTTE_AUTO</title><path class="cls-1" d="M74.36,19.16l-6,.72A1.5,1.5,0,0,0,67,21.3v1.09a.38.38,0,0,0,.4.37l6-.22A1.65,1.65,0,0,0,75,20.93V19.72a.55.55,0,0,0-.6-.56ZM46.14,7.57a142.75,142.75,0,0,1,21,0,2.17,2.17,0,0,1,1.45.79l3.75,4.48h4.35a1.26,1.26,0,0,1,1.14.88l.4,1.44c.05.19-.08.27-.26.35l-2.48,1.1,1,1.2a4.53,4.53,0,0,1,.89,3V32.88a.91.91,0,0,1-.92.9H69.7a.91.91,0,0,1-.92-.9V30.53H57.95V27.91a7.65,7.65,0,0,0-1.27-4.61l.92-.41a2.15,2.15,0,0,0,1.35-2.59l-.5-1.8a3.39,3.39,0,0,0-3.18-2.43h-4.6l-4.15-5a4.53,4.53,0,0,0-2.78-1.6l1-1.14a2.17,2.17,0,0,1,1.45-.79ZM17,11.27a2.72,2.72,0,0,0-1.82,1l-4.7,5.62H5A1.58,1.58,0,0,0,3.58,19l-.5,1.8c-.07.24.1.34.33.44l3.1,1.38L5.26,24.11a5.68,5.68,0,0,0-1.12,3.8V43a1.14,1.14,0,0,0,1.15,1.12h8.45A1.14,1.14,0,0,0,14.89,43v-3H45.38v3a1.14,1.14,0,0,0,1.15,1.12H55A1.14,1.14,0,0,0,56.13,43V27.91A5.68,5.68,0,0,0,55,24.11L53.75,22.6l3.1-1.38c.23-.1.4-.2.33-.44l-.5-1.8a1.58,1.58,0,0,0-1.43-1.1H49.81l-4.7-5.62a2.72,2.72,0,0,0-1.82-1,179,179,0,0,0-26.31,0ZM11.48,21.68a308.16,308.16,0,0,1,37.3,0c.48.07.54-.26.36-.51l-5.74-7a1.33,1.33,0,0,0-.93-.51,160.53,160.53,0,0,0-24.69,0,1.33,1.33,0,0,0-.93.51l-5.74,7c-.18.25-.12.57.36.51ZM7.89,25.82l7.53.91a1.88,1.88,0,0,1,1.75,1.77v1.37a.48.48,0,0,1-.5.47l-7.53-.27a2.07,2.07,0,0,1-2-2V26.52a.69.69,0,0,1,.75-.7Zm44.48,0-7.53.91a1.88,1.88,0,0,0-1.75,1.77v1.37a.48.48,0,0,0,.5.47l7.53-.27a2.07,2.07,0,0,0,2-2V26.52A.69.69,0,0,0,52.37,25.82Z"/></svg>