<svg id="Mode_Isolation" data-name="Mode Isolation" xmlns="http://www.w3.org/2000/svg" viewBox="0 0 81.44 49.96"><defs><style>.cls-1{fill:#999;}</style></defs><title>05_IT</title><path class="cls-1" d="M35.24,13.69a4.11,4.11,0,0,1-3.57,2.83c-.05.7-.09,1.4-.09,2.1a26.52,26.52,0,0,0,7.52,18.5,4.1,4.1,0,0,1,6,1,24.72,24.72,0,0,0,8.15-7.19A4.09,4.09,0,0,1,53,25.26,32.9,32.9,0,0,0,35.24,13.69Zm-.74-3.9a28.93,28.93,0,0,1,23,1.95,24.33,24.33,0,0,0-3.43-8.43A24.7,24.7,0,0,0,41.67,0a25.07,25.07,0,0,0-2.56.13,26.73,26.73,0,0,0-5.67,8.74A4.14,4.14,0,0,1,34.51,9.8Zm2,1.81A35.21,35.21,0,0,1,55,24a3.62,3.62,0,0,1,1.86-.12A24.4,24.4,0,0,0,58,16.55c0-.63,0-1.25-.08-1.87a26.53,26.53,0,0,0-21.37-3.08Zm-8.77-1.25a4.11,4.11,0,0,1,3.42-2.07A29,29,0,0,1,35.41.8,24.87,24.87,0,0,0,21.13,10.88a35.21,35.21,0,0,1,6.06-.53Zm38.7,13a26.82,26.82,0,0,0-6.16-7c0,.05,0,.11,0,.16A26.8,26.8,0,0,1,59,24.91a4.11,4.11,0,0,1,.17,5.89,35,35,0,0,1,2.67,8.56,24.71,24.71,0,0,0,4.7-14.53C66.5,24.34,66.48,23.85,66.45,23.37Zm-.83-5.08A24.82,24.82,0,0,0,58.29,6.38a26.59,26.59,0,0,1,1.81,7A29,29,0,0,1,65.62,18.29Zm-24,26.19a4.11,4.11,0,0,1-3.19-1.53,26.91,26.91,0,0,1-5.08.5,26.68,26.68,0,0,1-10.19-2A24.82,24.82,0,0,0,52.75,47a28.84,28.84,0,0,1-8.82-3.24A4.12,4.12,0,0,1,41.67,44.48ZM56.15,32.07a4.12,4.12,0,0,1-.75-.08,27,27,0,0,1-9.61,8.41A4.12,4.12,0,0,1,45.46,42a26.44,26.44,0,0,0,10.48,3.15,25,25,0,0,0,3.87-3.37A32.65,32.65,0,0,0,57.09,32,4.13,4.13,0,0,1,56.15,32.07ZM37.57,40.76c0-.14,0-.27,0-.41a4.11,4.11,0,0,1,.22-1.26,28.85,28.85,0,0,1-8.49-20.46c0-.87.05-1.72.13-2.57a4.12,4.12,0,0,1-.89-.63A26.68,26.68,0,0,0,17.75,31.49a24.67,24.67,0,0,0,2.39,5.7,24.25,24.25,0,0,0,17.43,3.57ZM27.32,13.41a4.13,4.13,0,0,1-.11-.74h0a32.48,32.48,0,0,0-7.67.94,24.72,24.72,0,0,0-2.68,11.21c0,.53,0,1.05.05,1.57A29,29,0,0,1,27.32,13.41Z"/></svg>