<svg id="Mode_Isolation" data-name="Mode Isolation" xmlns="http://www.w3.org/2000/svg" viewBox="0 0 81.44 49.96"><defs><style>.cls-1{fill:#a1a1a1;}</style></defs><title>03_eBOUTIQUE</title><circle class="cls-1" cx="34.94" cy="46" r="3.57"/><circle class="cls-1" cx="54.72" cy="46" r="3.57"/><path class="cls-1" d="M67.17,11.43a2,2,0,0,0-1.5-.64H26.51L25.4,6.23A1.78,1.78,0,0,0,24.3,5L15.44.61a2,2,0,0,0-2.62.67,1.63,1.63,0,0,0,.74,2.34l8.27,4.12,1.45,5.91,4.37,20.2.51,2.3h3.92L31.5,33.4l30.4-3a1.86,1.86,0,0,0,1.66-1.34l4-16.22A1.59,1.59,0,0,0,67.17,11.43ZM27.63,15.6a1.54,1.54,0,0,0,0-.45l-.23-.92h9.8l.48,6.36L28.81,21Zm3.19,14.57-1.47-6.73,8.49-.4.48,6.36Zm17.87-1.84L41,29.12l-.47-6.21,8.81-.42Zm1-8.31-9.3.44-.47-6.23H50.39Zm10.4,7.14L51.48,28l.69-5.68,9.21-.43ZM62,19.44l-9.52.45.69-5.66H63.27Z"/><path class="cls-1" d="M67.17,11.43Z"/><path class="cls-1" d="M59.88,37.34H29.64a1.49,1.49,0,0,0,0,3H59.88a1.49,1.49,0,1,0,0-3Z"/></svg>