<svg id="Picto_forme_Rond" data-name="Picto forme Rond" xmlns="http://www.w3.org/2000/svg" viewBox="0 0 108.92 108.52"><defs><style>.cls-1{fill:#3cf;}.cls-2{fill:#48b4df;}.cls-3{fill:#fff;}</style></defs><title>01_TWITTER</title><circle class="cls-1" cx="54.26" cy="54.26" r="54.26"/><path class="cls-2" d="M71,28,60.87,33.37l3.51,21.52-8.5,20.26-30.71,1,36.54,31.32h2c19.81-4,39.81-20.49,43.21-42.21l2-9.89Z"/><path class="cls-3" d="M81.11,55.75C75,82.65,34.1,94.06,15.28,66.14A18.71,18.71,0,0,0,43,65.33c-4.67.74-8.07-4.25-2.34-6.94a8.52,8.52,0,0,1-9.2-4.91c1.21-1.37,2.54-2,5.12-2.2-5.64-1.45-7.73-4.46-8.37-8.11a14.39,14.39,0,0,1,4.59-.6c-4.94-2.81-6.66-7.05-6.38-10.23a143.2,143.2,0,0,1,19.18,9.18,28.56,28.56,0,0,1,5.66,5c2.69-7.74,6-15.7,11.7-19.66a4.58,4.58,0,0,1-1.12,2.41,10.74,10.74,0,0,1,5.83-3C67.45,28,65.15,29,63.76,29.52c1.06-.36,6.65-3.08,7.26-1.53.73,1.75-3.86,2.57-4.64,2.88-.58.21-1.16.44-1.73.69,7.09-.77,13.87,5.6,15.84,13.51.14.57.28,1.2.41,1.86,2.59,1.06,7.29-.05,8.8-1.06-1.09,2.82-3.94,4.9-8.13,5.27a16.73,16.73,0,0,0,8.46.94C88.37,54,85.69,55.79,81.11,55.75Z"/></svg>