<svg id="Picto_forme_Rond" data-name="Picto forme Rond" xmlns="http://www.w3.org/2000/svg" viewBox="0 0 67.88 67.88"><defs><style>.cls-1{fill:#fff;}</style></defs><title>05_FLU_RSS</title><path class="cls-1" d="M8.27,67.88a8.11,8.11,0,1,1,8.09-8.11A8.1,8.1,0,0,1,8.27,67.88Z"/><path class="cls-1" d="M38.74,67.88H30.28a3.12,3.12,0,0,1-3-2.87A27.48,27.48,0,0,0,2.87,40.56a3.12,3.12,0,0,1-2.87-3V29a2.72,2.72,0,0,1,2.87-2.77A41.73,41.73,0,0,1,41.52,65,2.73,2.73,0,0,1,38.74,67.88Z"/><path class="cls-1" d="M65.07,67.88H57.39A3,3,0,0,1,54.44,65,54.49,54.49,0,0,0,3,13.48,3,3,0,0,1,.17,10.53V2.81A2.78,2.78,0,0,1,3,0,67.94,67.94,0,0,1,67.88,65,2.78,2.78,0,0,1,65.07,67.88Z"/></svg>