<svg id="Picto_forme_Rond" data-name="Picto forme Rond" xmlns="http://www.w3.org/2000/svg" viewBox="0 0 61.8 61.63"><defs><style>.cls-1{fill:#fff;fill-rule:evenodd;}</style></defs><title>02_LINKEDIN</title><path class="cls-1" d="M6.59,0A7.53,7.53,0,0,1,13.8,3.44a6.57,6.57,0,0,1,1.08,3.31,7.65,7.65,0,0,1-3,6.71C7.32,16.73-.49,13.9,0,6.75a6.89,6.89,0,0,1,3-5.4A6.77,6.77,0,0,1,6.59,0Z"/><path class="cls-1" d="M61.74,61.62c-4.25-.05-8.7.1-12.83-.08V47.71c0-6,.8-13-2.38-15.72-2-1.73-6.32-1.7-8.65-.15C34.19,34.3,34.63,40.68,34.63,47V61.62H21.87V20.38c3.89.12,8.29.12,12.18,0,.16,1.74,0,3.78.07,5.63.46-.27.66-.84.94-1.23a13.74,13.74,0,0,1,10.74-5.4c9.9-.47,14.58,4.77,15.64,13.48.54,4.35.29,9.26.29,14.28Z"/><path class="cls-1" d="M1.11,20.45H13.87V61.62H1v-41C1,20.57,1,20.47,1.11,20.45Z"/></svg>