<svg id="Picto_forme_Rond" data-name="Picto forme Rond" xmlns="http://www.w3.org/2000/svg" viewBox="0 0 74.75 56.06"><defs><style>.cls-1{fill:#fff;}</style></defs><title>03_TWITTER</title><path class="cls-1" d="M65.83,29.52C59.74,56.42,18.82,67.83,0,39.91a18.71,18.71,0,0,0,27.73-.81c-4.67.74-8.07-4.25-2.34-6.94a8.52,8.52,0,0,1-9.2-4.91c1.21-1.37,2.54-2,5.12-2.2-5.64-1.45-7.73-4.46-8.37-8.11a14.39,14.39,0,0,1,4.59-.6C12.6,13.54,10.88,9.3,11.15,6.12A143.2,143.2,0,0,1,30.33,15.3a28.56,28.56,0,0,1,5.66,5C38.68,12.52,42,4.56,47.69.6A4.58,4.58,0,0,1,46.57,3a10.74,10.74,0,0,1,5.83-3c-.24,1.74-2.54,2.72-3.93,3.29,1.06-.36,6.65-3.08,7.26-1.53.73,1.75-3.86,2.57-4.64,2.88-.58.21-1.16.44-1.73.69,7.09-.77,13.87,5.6,15.84,13.51.14.57.28,1.2.41,1.86,2.59,1.06,7.29-.05,8.8-1.06-1.09,2.82-3.94,4.9-8.13,5.27a16.73,16.73,0,0,0,8.46.94C73.08,27.8,70.4,29.56,65.83,29.52Z"/></svg>