<svg id="Calque_1" data-name="Calque 1" xmlns="http://www.w3.org/2000/svg" xmlns:xlink="http://www.w3.org/1999/xlink" viewBox="0 0 23.59 15.58"><defs><style>.cls-1{fill:none;}.cls-2{clip-path:url(#clip-path);}.cls-3{fill:#cacaca;}.cls-4{clip-path:url(#clip-path-2);}.cls-5{fill:#407469;}.cls-6{fill:#007764;}.cls-7{clip-path:url(#clip-path-3);}.cls-8{fill:url(#Dégradé_sans_nom_8);}.cls-9{clip-path:url(#clip-path-4);}.cls-10{fill:url(#Dégradé_sans_nom_9);}.cls-11{clip-path:url(#clip-path-5);}.cls-12{fill:url(#Dégradé_sans_nom_11);}.cls-13{clip-path:url(#clip-path-6);}.cls-14{fill:url(#Dégradé_sans_nom_4);}.cls-15{clip-path:url(#clip-path-7);}.cls-16{fill:url(#Dégradé_sans_nom_5);}.cls-17{clip-path:url(#clip-path-9);}.cls-18{fill:url(#Dégradé_sans_nom_11-2);}.cls-19{clip-path:url(#clip-path-10);}.cls-20{clip-path:url(#clip-path-11);}.cls-21{clip-path:url(#clip-path-12);}.cls-22{fill:url(#Dégradé_sans_nom_8-2);}.cls-23{clip-path:url(#clip-path-13);}.cls-24{fill:url(#Dégradé_sans_nom_9-2);}.cls-25{clip-path:url(#clip-path-14);}.cls-26{fill:url(#Dégradé_sans_nom_11-3);}.cls-27{clip-path:url(#clip-path-15);}.cls-28{fill:url(#Dégradé_sans_nom_11-4);}.cls-29{clip-path:url(#clip-path-16);}.cls-30{fill:url(#Dégradé_sans_nom_12);}.cls-31{clip-path:url(#clip-path-17);}.cls-32{fill:url(#Dégradé_sans_nom_13);}.cls-33{clip-path:url(#clip-path-18);}.cls-34{fill:url(#Dégradé_sans_nom_16);}.cls-35{clip-path:url(#clip-path-20);}.cls-36{clip-path:url(#clip-path-21);}.cls-37{fill:url(#Dégradé_sans_nom_19);}.cls-38{clip-path:url(#clip-path-22);}.cls-39{fill:url(#Dégradé_sans_nom_20);}.cls-40{clip-path:url(#clip-path-24);}.cls-41{fill:url(#Dégradé_sans_nom_21);}.cls-42{fill:#fff;}</style><clipPath id="clip-path"><rect class="cls-1" width="23.59" height="23.59"/></clipPath><clipPath id="clip-path-2"><circle class="cls-1" cx="11.79" cy="11.79" r="11.79"/></clipPath><clipPath id="clip-path-3"><path class="cls-1" d="M14.16.24a11.78,11.78,0,0,1,7,4.44h0A11.8,11.8,0,0,0,14.16.24Z"/></clipPath><linearGradient id="Dégradé_sans_nom_8" y1="26.96" x2="1" y2="26.96" gradientTransform="matrix(8.66, 0, 0, -8.66, 12.57, 236.01)" gradientUnits="userSpaceOnUse"><stop offset="0" stop-color="#fff"/><stop offset="0.01" stop-color="#fff"/><stop offset="0.8" stop-color="#f6f6f7"/><stop offset="1" stop-color="#f6f6f7"/></linearGradient><clipPath id="clip-path-4"><path class="cls-1" d="M12.57,1.16l8.61,3.52a11.78,11.78,0,0,0-7-4.44Z"/></clipPath><linearGradient id="Dégradé_sans_nom_9" y1="26.96" x2="1" y2="26.96" gradientTransform="matrix(8.66, 0, 0, -8.66, 12.57, 235.98)" gradientUnits="userSpaceOnUse"><stop offset="0" stop-color="#63867d"/><stop offset="0.01" stop-color="#63867d"/><stop offset="0.8" stop-color="#5a8078"/><stop offset="1" stop-color="#5a8078"/></linearGradient><clipPath id="clip-path-5"><polygon class="cls-1" points="12.57 1.16 14.16 0.24 14.16 0.24 12.57 1.16"/></clipPath><linearGradient id="Dégradé_sans_nom_11" y1="26.75" x2="1" y2="26.75" gradientTransform="matrix(8.66, 0, 0, -8.66, 12.57, 232.46)" gradientUnits="userSpaceOnUse"><stop offset="0" stop-color="#19887a"/><stop offset="0.01" stop-color="#19887a"/><stop offset="0.8" stop-color="#008274"/><stop offset="1" stop-color="#008274"/></linearGradient><clipPath id="clip-path-6"><path class="cls-1" d="M.54,15.34a11.78,11.78,0,0,0,2.64,4.51h0a11.77,11.77,0,0,1-2.64-4.5Z"/></clipPath><linearGradient id="Dégradé_sans_nom_4" y1="27.04" x2="1" y2="27.04" gradientTransform="matrix(7.28, 0, 0, -7.28, 0.49, 214.57)" gradientUnits="userSpaceOnUse"><stop offset="0" stop-color="#fff"/><stop offset="0.01" stop-color="#fff"/><stop offset="0.8" stop-color="#f0f0ef"/><stop offset="1" stop-color="#f0f0ef"/></linearGradient><clipPath id="clip-path-7"><path class="cls-1" d="M.55,15.33a11.77,11.77,0,0,0,2.64,4.5l4.58-8Z"/></clipPath><linearGradient id="Dégradé_sans_nom_5" y1="27.27" x2="1" y2="27.27" gradientTransform="matrix(7.28, 0, 0, -7.28, 0.49, 214.5)" gradientUnits="userSpaceOnUse"><stop offset="0" stop-color="#839c95"/><stop offset="0.01" stop-color="#839c95"/><stop offset="0.8" stop-color="#759088"/><stop offset="1" stop-color="#759088"/></linearGradient><clipPath id="clip-path-9"><polygon class="cls-1" points="7.4 11.71 7.77 11.86 7.77 11.86 7.79 11.82 7.79 11.72 7.4 11.71"/></clipPath><linearGradient id="Dégradé_sans_nom_11-2" x1="0.09" y1="22.57" x2="1.09" y2="22.57" gradientTransform="matrix(10.83, 0, 0, -10.83, 6.52, 256.1)" xlink:href="#Dégradé_sans_nom_11"/><clipPath id="clip-path-10"><path class="cls-1" d="M11.79,0A11.79,11.79,0,1,0,23.58,11.79,11.79,11.79,0,0,0,11.79,0"/></clipPath><clipPath id="clip-path-11"><path class="cls-1" d="M.57,8.14l0,0C.44,8.43.36,8.69.3,9l0,0c.07-.28.15-.56.23-.83"/></clipPath><clipPath id="clip-path-12"><rect class="cls-1" x="0.3" y="8.14" width="0.27" height="0.83"/></clipPath><linearGradient id="Dégradé_sans_nom_8-2" y1="26.7" y2="26.7" gradientTransform="matrix(12.27, 0, 0, -12.27, 0.3, 336.23)" xlink:href="#Dégradé_sans_nom_8"/><clipPath id="clip-path-13"><path class="cls-1" d="M.58,8.14Q.44,8.55.34,9L7.4,11.71h.39v.11L12.53,1.26l0-.1Z"/></clipPath><linearGradient id="Dégradé_sans_nom_9-2" x1="0" y1="27.1" x2="1" y2="27.1" gradientTransform="matrix(12.27, 0, 0, -12.27, 0.3, 339.08)" xlink:href="#Dégradé_sans_nom_9"/><clipPath id="clip-path-14"><path class="cls-1" d="M.58,8.14l12-7Z"/></clipPath><linearGradient id="Dégradé_sans_nom_11-3" x1="0" y1="26.95" x2="1" y2="26.95" gradientTransform="matrix(12.27, 0, 0, -12.27, 0.3, 335.43)" xlink:href="#Dégradé_sans_nom_11"/><clipPath id="clip-path-15"><path class="cls-1" d="M12.53,1.26l0-.1Z"/></clipPath><linearGradient id="Dégradé_sans_nom_11-4" x1="0" y1="26.67" x2="1" y2="26.67" gradientTransform="matrix(12.27, 0, 0, -12.27, 0.3, 328.52)" xlink:href="#Dégradé_sans_nom_11"/><clipPath id="clip-path-16"><path class="cls-1" d="M22.74,16.08l0,0a11.75,11.75,0,0,0,.79-3.56h0a11.75,11.75,0,0,1-.78,3.54"/></clipPath><linearGradient id="Dégradé_sans_nom_12" y1="27.03" x2="1" y2="27.03" gradientTransform="matrix(6.31, 0, 0, -6.31, 17.28, 184.77)" gradientUnits="userSpaceOnUse"><stop offset="0" stop-color="#fff"/><stop offset="0.01" stop-color="#fff"/><stop offset="0.8" stop-color="#f6f7f7"/><stop offset="1" stop-color="#f6f7f7"/></linearGradient><clipPath id="clip-path-17"><path class="cls-1" d="M17.28,10.36l5.46,5.71a11.75,11.75,0,0,0,.78-3.54Z"/></clipPath><linearGradient id="Dégradé_sans_nom_13" y1="27.2" x2="1" y2="27.2" gradientTransform="matrix(6.31, 0, 0, -6.31, 17.28, 184.71)" gradientUnits="userSpaceOnUse"><stop offset="0" stop-color="#60847c"/><stop offset="0.01" stop-color="#60847c"/><stop offset="0.8" stop-color="#5a8076"/><stop offset="1" stop-color="#5a8076"/></linearGradient><clipPath id="clip-path-18"><path class="cls-1" d="M7.76,16.89l-3.47,1L6,19.23l1.72,1.3,3.12,2.35.69.52h2.11a11.66,11.66,0,0,0,1.7-.4l1.33-8.77Z"/></clipPath><linearGradient id="Dégradé_sans_nom_16" y1="27.05" x2="1" y2="27.05" gradientTransform="matrix(12.41, 0, 0, -12.41, 4.28, 354.45)" gradientUnits="userSpaceOnUse"><stop offset="0" stop-color="#5e847b"/><stop offset="0.01" stop-color="#5e847b"/><stop offset="0.8" stop-color="#578075"/><stop offset="1" stop-color="#578075"/></linearGradient><clipPath id="clip-path-20"><path class="cls-1" d="M16.69,14.22Z"/></clipPath><clipPath id="clip-path-21"><path class="cls-1" d="M21.18,4.68a11.76,11.76,0,0,1,1.6,2.88h0A11.7,11.7,0,0,0,21.21,4.7Z"/></clipPath><linearGradient id="Dégradé_sans_nom_19" y1="26.82" x2="1" y2="26.82" gradientTransform="matrix(10.24, 0, 0, -10.24, 12.57, 280.89)" gradientUnits="userSpaceOnUse"><stop offset="0" stop-color="#fff"/><stop offset="0.01" stop-color="#fff"/><stop offset="0.8" stop-color="#f2f1f1"/><stop offset="1" stop-color="#f2f1f1"/></linearGradient><clipPath id="clip-path-22"><path class="cls-1" d="M12.57,1.16l4.71,9.2,5.5-2.8a11.76,11.76,0,0,0-1.6-2.88Z"/></clipPath><linearGradient id="Dégradé_sans_nom_20" y1="27.13" x2="1" y2="27.13" gradientTransform="matrix(10.24, 0, 0, -10.24, 12.57, 283.69)" gradientUnits="userSpaceOnUse"><stop offset="0" stop-color="#7d968e"/><stop offset="0.01" stop-color="#7d968e"/><stop offset="0.8" stop-color="#6e8b83"/><stop offset="1" stop-color="#6e8b83"/></linearGradient><clipPath id="clip-path-24"><polygon class="cls-1" points="7.77 11.86 7.79 11.86 7.79 11.82 7.77 11.86"/></clipPath><linearGradient id="Dégradé_sans_nom_21" x1="0.15" y1="22.59" x2="1.15" y2="22.59" gradientTransform="matrix(6.88, 0, 0, -6.88, 4.43, 167.29)" gradientUnits="userSpaceOnUse"><stop offset="0" stop-color="#d2d2d2"/><stop offset="0.2" stop-color="#d2d2d2"/><stop offset="0.99" stop-color="#fff"/><stop offset="1" stop-color="#fff"/></linearGradient></defs><title>04-IMMO</title><g class="cls-2"><path class="cls-3" d="M11.79,23.59A11.79,11.79,0,1,0,0,11.79,11.79,11.79,0,0,0,11.79,23.59"/></g><g class="cls-4"><path class="cls-5" d="M23.55,11.78A11.78,11.78,0,1,1,11.78,0,11.78,11.78,0,0,1,23.55,11.78"/><polygon class="cls-6" points="12.57 1.16 14.17 0.23 0.52 8.17 12.57 1.16"/><polygon class="cls-6" points="4.28 17.93 7.77 11.86 3.15 19.91 4.28 17.93"/><polygon class="cls-6" points="7.79 11.82 7.79 11.82 9.83 7.28 12.57 1.16 7.79 11.82"/><polygon class="cls-6" points="7.79 11.82 7.79 11.82 7.77 11.86 7.79 11.82"/></g><g class="cls-7"><rect class="cls-8" x="14.16" y="0.24" width="7.06" height="4.46"/></g><g class="cls-9"><rect class="cls-10" x="12.57" y="0.24" width="8.61" height="4.44"/></g><g class="cls-11"><rect class="cls-12" x="12.57" y="0.24" width="1.59" height="0.93"/></g><g class="cls-13"><rect class="cls-14" x="0.54" y="15.33" width="2.65" height="4.51"/></g><g class="cls-15"><rect class="cls-16" x="0.55" y="11.86" width="7.22" height="7.98"/></g><g class="cls-4"><polygon class="cls-6" points="7.77 11.86 7.79 11.82 7.79 11.72 7.4 11.71 7.77 11.86"/></g><g class="cls-17"><rect class="cls-18" x="7.52" y="11.59" width="0.15" height="0.39" transform="translate(-4.24 19.3) rotate(-89.63)"/></g><g class="cls-19"><g class="cls-20"><g class="cls-21"><rect class="cls-22" x="0.3" y="8.14" width="0.27" height="0.83"/></g></g></g><g class="cls-23"><rect class="cls-24" x="0.34" y="1.16" width="12.23" height="10.66"/></g><g class="cls-25"><rect class="cls-26" x="0.58" y="1.16" width="11.99" height="6.98"/></g><g class="cls-27"><rect class="cls-28" x="12.53" y="1.16" width="0.04" height="0.1"/></g><g class="cls-29"><rect class="cls-30" x="22.74" y="12.54" width="0.82" height="3.57"/></g><g class="cls-31"><rect class="cls-32" x="17.28" y="10.36" width="6.25" height="5.71"/></g><g class="cls-33"><rect class="cls-34" x="4.28" y="14.22" width="12.41" height="9.18"/></g><g class="cls-36"><rect class="cls-37" x="21.18" y="4.68" width="1.62" height="2.89"/></g><g class="cls-38"><rect class="cls-39" x="12.57" y="1.16" width="10.21" height="9.2"/></g><g class="cls-4"><polygon class="cls-6" points="7.79 11.86 7.79 11.82 7.77 11.86 7.79 11.86"/></g><g class="cls-40"><rect class="cls-41" x="7.76" y="11.83" width="0.04" height="0.02" transform="matrix(0.01, -1, 1, 0.01, -4.11, 19.55)"/></g><g class="cls-4"><path class="cls-42" d="M17.26,7.85l-.71-.21v-1l.71.24Zm0,6.21L16.55,14V13l.71.09Zm0,1.55-.71,0v-1l.71.05ZM15.9,7.44l-.78-.24v-1l.78.26Zm0,6.5-.78-.07V12.82l.78.1Zm0,1.63-.78,0v-1l.78.06ZM14.48,7l-.85-.26V5.65l.85.29Zm2.76,5.54-3.62-.49V7.46l3.62,1.08Zm-2.76,1.26-.85-.08v-1.1l.85.11Zm0,1.7-.85,0v-1.1l.85.06ZM12,6.89l-.64.4v-1L12,5.81Zm0,1.72-.64.33v-1L12,7.53Zm0,1.72-.64.26v-1L12,9.25Zm0,1.72-.64.19v-1L12,11Zm0,1.72-.64.12v-1l.64-.17Zm0,1.72-.64.05v-1l.64-.1ZM10.89,7.59l-.56.35V7l.56-.39Zm0,1.6-.56.29v-1l.56-.33Zm0,.74-.22,0,.22-.11Zm-.17,2.53-.56-.06V11.25l.56.08Zm0,1.61-.56,0V12.88l.56.06Zm0,1.61-.56,0V14.52l.56,0Zm-1-3.33-.59-.07V11.11l.59.09Zm0,1.65-.59,0V12.78l.59.06Zm0,1.65-.59,0V14.46l.59,0Zm-1-3.42-.62-.07V11l.62.09Zm0,1.69-.62,0v-1.2l.62.06Zm0,1.69-.62,0V14.4l.62,0ZM7,12.27l-.52.21V11.36L7,11.1Zm0,1.68-.52.13V13L7,12.78Zm0,1.68-.52.05V14.57L7,14.46Zm-.85-3-.44.18v-1l.44-.23Zm0,1.55-.44.11v-1l.44-.16Zm0,1.55-.44,0v-1l.44-.09Zm-.73-2.8-.38.16v-1l.38-.2Zm0,1.44-.38.1v-1l.38-.14Zm0,1.44-.38,0v-1l.38-.08Zm12.37-10-5-1.91V16.49h-.23V3.87L9.88,6V9.74l-2.17-.4v7.15H7.43V9.34L4.84,11v5.45H3.58v.8H19.1v-.8H17.84Z"/><path class="cls-42" d="M16.42,9.34a.83.83,0,0,0-.56-.17.56.56,0,0,0-.61.55h1l-.14.41H15.2a1.14,1.14,0,0,0,0,.12s0,.1,0,.14h.85l-.14.41h-.67a.57.57,0,0,0,.61.57.8.8,0,0,0,.56-.17v.53a1.28,1.28,0,0,1-.64.13c-.58,0-1-.32-1.08-1.06h-.35l.13-.41h.17a1.3,1.3,0,0,1,0-.14,1.08,1.08,0,0,1,0-.12h-.3l.13-.41h.2c.11-.66.45-1,1.09-1a1.29,1.29,0,0,1,.64.14Z"/></g></svg>