<svg id="Calque_1" data-name="Calque 1" xmlns="http://www.w3.org/2000/svg" xmlns:xlink="http://www.w3.org/1999/xlink" viewBox="0 0 23.59 15.58"><defs><style>.cls-1{fill:#6b6277;}.cls-2,.cls-3,.cls-4{fill:#f5f5f5;}.cls-2,.cls-4{opacity:0.23;}.cls-3,.cls-4{fill-opacity:0.28;}.cls-3{opacity:0.34;}.cls-5{fill:url(#linear-gradient);}.cls-6{fill:#fff;}.cls-7{fill:#3e4443;}.cls-8{fill:#595162;}</style><linearGradient id="linear-gradient" x1="-585.54" y1="433.53" x2="-585.52" y2="433.53" gradientTransform="matrix(2.84, -439.36, -439.36, -2.84, 192149.86, -256015.9)" gradientUnits="userSpaceOnUse"><stop offset="0" stop-color="#d0d0d0"/><stop offset="0.2" stop-color="#d0d0d0"/><stop offset="0.99" stop-color="#fff"/><stop offset="1" stop-color="#fff"/></linearGradient></defs><title>05-POLITIQUE</title><polygon class="cls-1" points="12.58 1.2 14.17 0.27 14.17 0.27 0.6 8.17 0.6 8.17 12.58 1.2"/><path class="cls-1" d="M14.17.27A11.78,11.78,0,0,0,.6,8.17Z"/><polygon class="cls-1" points="4.34 17.87 7.81 11.83 3.21 19.84 3.21 19.84 4.34 17.87"/><polygon class="cls-1" points="7.82 11.8 7.82 11.8 9.85 7.28 9.85 7.28 9.85 7.28 12.58 1.2 12.58 1.2 7.82 11.8"/><polygon class="cls-1" points="7.81 11.83 7.81 11.83 7.81 11.83 7.81 11.83"/><polygon class="cls-1" points="9.85 7.28 9.85 7.28 9.85 7.28 9.85 7.28"/><polygon class="cls-1" points="16.68 14.19 16.68 14.19 16.68 14.19 16.68 14.19"/><circle class="cls-1" cx="7.81" cy="11.83"/><polygon class="cls-1" points="7.82 11.8 7.82 11.8 7.81 11.83 7.81 11.83 7.82 11.8"/><polygon class="cls-1" points="17.26 10.35 16.68 14.19 15.34 23.02 15.34 23.02 17.26 10.35 17.26 10.35"/><polygon class="cls-1" points="17.26 10.35 17.26 10.35 17.26 10.35 17.26 10.35"/><path class="cls-1" d="M22.75,16.08l-5.49-5.73L15.34,23a11.71,11.71,0,0,0,3.13-1.53l4.16-5.09Z"/><path class="cls-1" d="M21.19,4.72a11.76,11.76,0,0,0-7-4.45l-1.59.93Z"/><path class="cls-2" d="M21.19,4.72a11.76,11.76,0,0,0-7-4.45l-1.59.93Z"/><path class="cls-1" d="M7.81,11.83h0L.57,15.32a11.75,11.75,0,0,0,2.64,4.52Z"/><path class="cls-3" d="M7.81,11.83h0L.57,15.32a11.75,11.75,0,0,0,2.64,4.52Z"/><path class="cls-1" d="M7.81,11.83h0l-.37-.14L0,11.64c0,.05,0,.1,0,.15a11.76,11.76,0,0,0,.54,3.52Z"/><path class="cls-1" d="M7.81,11.83h0l-.37-.14L0,11.64c0,.05,0,.1,0,.15a11.76,11.76,0,0,0,.54,3.52Z"/><path class="cls-1" d="M.38,8.95A11.78,11.78,0,0,0,0,11.64l7.41,0Z"/><path class="cls-1" d="M.38,8.95A11.78,11.78,0,0,0,0,11.64l7.41,0Z"/><polygon class="cls-1" points="7.81 11.83 7.82 11.8 7.83 11.69 7.44 11.69 7.81 11.83 7.81 11.83"/><path class="cls-1" d="M7.44,11.69h.38v.1L12.58,1.2l-12,7q-.12.39-.22.78Z"/><path class="cls-3" d="M7.44,11.69l.37.14h0L12.58,1.2l-12,7q-.12.39-.22.78Z"/><path class="cls-1" d="M17.26,10.35l5.49,5.73a11.7,11.7,0,0,0,.78-3.56Z"/><path class="cls-4" d="M17.26,10.35l5.49,5.73a11.7,11.7,0,0,0,.78-3.56Z"/><path class="cls-1" d="M7.79,16.84l0,3.61,4.12,3.11A11.75,11.75,0,0,0,15.34,23l1.34-8.83h0Z"/><path class="cls-3" d="M7.79,16.84l0,3.61,4.12,3.11A11.75,11.75,0,0,0,15.34,23l1.34-8.83h0Z"/><path class="cls-1" d="M21.19,4.72,12.58,1.2h0l4.68,9.15,5.5-2.8A11.74,11.74,0,0,0,21.19,4.72Z"/><path class="cls-3" d="M21.19,4.72,12.58,1.2h0l4.68,9.15,5.5-2.8A11.74,11.74,0,0,0,21.19,4.72Z"/><path class="cls-1" d="M23.53,12.53c0-.24,0-.49,0-.73a11.73,11.73,0,0,0-.79-4.24l-5.5,2.8Z"/><path class="cls-1" d="M23.53,12.53c0-.24,0-.49,0-.73a11.73,11.73,0,0,0-.79-4.24l-5.5,2.8Z"/><polygon class="cls-1" points="12.58 1.2 12.58 1.2 9.85 7.28 9.85 7.28 17.26 10.35 17.26 10.35 12.58 1.2"/><polygon class="cls-1" points="12.58 1.2 12.58 1.2 9.85 7.28 9.85 7.28 17.26 10.35 17.26 10.35 12.58 1.2"/><polygon class="cls-1" points="7.82 11.84 7.81 11.83 4.34 17.87 7.79 16.84 7.82 11.84"/><polygon class="cls-2" points="7.82 11.84 7.81 11.83 4.34 17.87 7.79 16.84 7.82 11.84"/><polygon class="cls-1" points="7.79 16.84 16.68 14.19 16.68 14.19 7.82 11.84 7.79 16.84"/><polygon class="cls-2" points="7.79 16.84 16.68 14.19 16.68 14.19 7.82 11.84 7.79 16.84"/><polygon class="cls-1" points="9.85 7.28 16.68 14.19 17.26 10.35 17.26 10.35 9.85 7.28 9.85 7.28 9.85 7.28"/><polygon class="cls-2" points="9.85 7.28 16.68 14.19 17.26 10.35 17.26 10.35 9.85 7.28 9.85 7.28 9.85 7.28"/><polygon class="cls-1" points="7.82 11.84 7.82 11.8 7.81 11.83 7.82 11.84"/><polygon class="cls-5" points="7.82 11.84 7.82 11.8 7.81 11.83 7.82 11.84"/><polygon class="cls-1" points="9.85 7.28 9.85 7.28 7.82 11.8 7.82 11.84 16.68 14.19 16.68 14.19 9.85 7.28"/><polygon class="cls-1" points="9.85 7.28 9.85 7.28 7.82 11.8 7.81 11.83 16.68 14.19 16.68 14.19 9.85 7.28"/><path class="cls-6" d="M18.57,15.63c-.07-.43-.15-.89-.22-1.29-.21-1.1-.92-3.62-1-3.73s-.15-.39-.32-.44-3-1-3.34-1.19c0,0-.48,2.67-.93,4.95-.12-1-.27-1.92-.33-2.25-.11-.58-.18-.93-.18-.93,0-.17.19-.66.26-.86a.13.13,0,0,0,0-.16l-.22-.32a.14.14,0,0,0-.08,0h-.49a.14.14,0,0,0-.08,0l-.22.32a.13.13,0,0,0,0,.16c.07.2.22.69.26.86,0,0-.07.34-.18.93-.06.32-.21,1.28-.33,2.25C10.68,11.64,10.2,9,10.2,9c-.38.16-3.16,1.14-3.33,1.19s-.28.33-.32.44-.75,2.63-1,3.73c-.08.4-.16.87-.23,1.29ZM10.1,6.84a2.11,2.11,0,0,0,.38,1c.3.3.79,1,1.49,1s1.18-.67,1.48-1a2.11,2.11,0,0,0,.38-1,.82.82,0,0,0,.43-.62,2.41,2.41,0,0,0,.1-.62c0-.37-.27-.11-.27-.11S14.65,2.2,12,2.2,9.84,5.49,9.84,5.49s-.28-.26-.27.11a2.38,2.38,0,0,0,.1.62A.82.82,0,0,0,10.1,6.84Z"/><path class="cls-7" d="M11.08,14.73a13.94,13.94,0,0,1-4.66-3.88.44.44,0,0,1-.11-.32,1.52,1.52,0,0,0-.58.58.42.42,0,0,0,.1.39,13.94,13.94,0,0,0,4.66,3.88l.64.31h2.25A16.31,16.31,0,0,1,11.08,14.73Z"/><path class="cls-8" d="M11.65,14.15A13.94,13.94,0,0,1,7,10.27c-.09-.12-.21-.15-.17-.3l0-.08a1,1,0,0,0-.55.57.39.39,0,0,0,0,.07.44.44,0,0,0,.11.32,13.94,13.94,0,0,0,4.66,3.88,16.31,16.31,0,0,0,2.3,1h2.68A17.85,17.85,0,0,1,11.65,14.15Z"/><path class="cls-7" d="M18.52,15.36a18.18,18.18,0,0,1-7.59-2.74A11.51,11.51,0,0,1,7.49,9.49a.69.69,0,0,0-.62.4l0,.08c0,.15.07.18.17.3a13.94,13.94,0,0,0,4.66,3.88,17.85,17.85,0,0,0,4.4,1.55h2.51C18.61,15.65,18.53,15.5,18.52,15.36Z"/></svg>