<svg id="Calque_1" data-name="Calque 1" xmlns="http://www.w3.org/2000/svg" xmlns:xlink="http://www.w3.org/1999/xlink" viewBox="0 0 23.59 15.58"><defs><style>.cls-1{fill:none;}.cls-2{clip-path:url(#clip-path);}.cls-3{fill:#cacaca;}.cls-4{clip-path:url(#clip-path-3);}.cls-5{fill:#486972;}.cls-6{opacity:0.7;}.cls-7{clip-path:url(#clip-path-4);}.cls-8{clip-path:url(#clip-path-5);}.cls-9{opacity:0.18;}.cls-10{opacity:0.4;}.cls-11{clip-path:url(#clip-path-6);}.cls-12{clip-path:url(#clip-path-7);}.cls-13{clip-path:url(#clip-path-9);}.cls-14{fill:url(#Dégradé_sans_nom_100);}.cls-15{opacity:0.48;}.cls-16{clip-path:url(#clip-path-10);}.cls-17{clip-path:url(#clip-path-11);}.cls-18{fill:url(#Dégradé_sans_nom_94);}.cls-19{opacity:0.2;}.cls-20{clip-path:url(#clip-path-12);}.cls-21{clip-path:url(#clip-path-13);}.cls-22{clip-path:url(#clip-path-15);}.cls-23{fill:url(#Dégradé_sans_nom_100-2);}.cls-24{opacity:0.38;}.cls-25{clip-path:url(#clip-path-16);}.cls-26{clip-path:url(#clip-path-17);}.cls-27{opacity:0.6;}.cls-28{clip-path:url(#clip-path-19);}.cls-29{fill:url(#Dégradé_sans_nom_94-2);}.cls-30{clip-path:url(#clip-path-20);}.cls-31{clip-path:url(#clip-path-21);}.cls-32{clip-path:url(#clip-path-23);}.cls-33{fill:url(#Dégradé_sans_nom_100-3);}.cls-34{opacity:0.58;}.cls-35{clip-path:url(#clip-path-24);}.cls-36{clip-path:url(#clip-path-25);}.cls-37{clip-path:url(#clip-path-27);}.cls-38{fill:url(#Dégradé_sans_nom_94-3);}.cls-39{clip-path:url(#clip-path-28);}.cls-40{clip-path:url(#clip-path-29);}.cls-41{fill:url(#Dégradé_sans_nom_100-4);}.cls-42{clip-path:url(#clip-path-30);}.cls-43{clip-path:url(#clip-path-31);}.cls-44{fill:url(#Dégradé_sans_nom_100-5);}.cls-45{opacity:0.08;}.cls-46{clip-path:url(#clip-path-32);}.cls-47{clip-path:url(#clip-path-33);}.cls-48{fill:url(#Dégradé_sans_nom_100-6);}.cls-49{opacity:0.28;}.cls-50{clip-path:url(#clip-path-34);}.cls-51{clip-path:url(#clip-path-35);}.cls-52{opacity:0.5;}.cls-53{clip-path:url(#clip-path-37);}.cls-54{fill:url(#Dégradé_sans_nom_100-7);}.cls-55{clip-path:url(#clip-path-38);}.cls-56{clip-path:url(#clip-path-39);}.cls-57{opacity:0.8;}.cls-58{clip-path:url(#clip-path-41);}.cls-59{fill:url(#Dégradé_sans_nom_100-8);}.cls-60{clip-path:url(#clip-path-42);}.cls-61{clip-path:url(#clip-path-43);}.cls-62{fill:url(#Dégradé_sans_nom_100-9);}.cls-63{fill:#fff;}</style><clipPath id="clip-path"><rect class="cls-1" width="23.59" height="23.59"/></clipPath><clipPath id="clip-path-3"><path class="cls-1" d="M11.65,0a11.79,11.79,0,1,0,.29,0Z"/></clipPath><clipPath id="clip-path-4"><rect class="cls-1" x="-7.78" y="-6.73" width="33.09" height="37.19"/></clipPath><clipPath id="clip-path-5"><rect class="cls-1" x="-7.78" y="-6.73" width="33.09" height="37.19"/></clipPath><clipPath id="clip-path-6"><rect class="cls-1" x="12.44" y="-2.32" width="12.74" height="8.73"/></clipPath><clipPath id="clip-path-7"><polygon class="cls-1" points="12.47 1.24 25.13 6.42 18.53 -2.28 12.47 1.24"/></clipPath><clipPath id="clip-path-9"><rect class="cls-1" x="14.49" y="-4.29" width="8.65" height="12.69" transform="translate(16.64 20.85) rotate(-89.63)"/></clipPath><linearGradient id="Dégradé_sans_nom_100" x1="0.12" y1="24.58" x2="1.12" y2="24.58" gradientTransform="translate(13.73 -208.3) scale(8.56)" gradientUnits="userSpaceOnUse"><stop offset="0" stop-color="#d0d0d0"/><stop offset="0.2" stop-color="#d0d0d0"/><stop offset="0.99" stop-color="#fff"/><stop offset="1" stop-color="#fff"/></linearGradient><clipPath id="clip-path-10"><rect class="cls-1" x="-7.78" y="7.83" width="22.62" height="22.62"/></clipPath><clipPath id="clip-path-11"><polygon class="cls-1" points="-0.53 15.89 -0.6 26.34 7.67 11.95 -0.53 15.89"/></clipPath><linearGradient id="Dégradé_sans_nom_94" x1="0.04" y1="24.63" x2="1.04" y2="24.63" gradientTransform="matrix(0, -16, 16, 0, -390.49, 27.85)" gradientUnits="userSpaceOnUse"><stop offset="0" stop-color="#fff"/><stop offset="0.01" stop-color="#fff"/><stop offset="0.8" stop-color="#d0d0d0"/><stop offset="1" stop-color="#d0d0d0"/></linearGradient><clipPath id="clip-path-12"><rect class="cls-1" x="-0.53" y="8.78" width="8.22" height="7.17"/></clipPath><clipPath id="clip-path-13"><polygon class="cls-1" points="-0.48 8.78 -0.53 15.89 7.67 11.95 -0.48 8.78"/></clipPath><clipPath id="clip-path-15"><rect class="cls-1" x="0.02" y="8.28" width="7.11" height="8.18" transform="translate(-8.81 15.87) rotate(-89.63)"/></clipPath><linearGradient id="Dégradé_sans_nom_100-2" x1="0.14" y1="24.58" x2="1.14" y2="24.58" gradientTransform="translate(-0.98 -159.72) scale(7)" xlink:href="#Dégradé_sans_nom_100"/><clipPath id="clip-path-16"><rect class="cls-1" x="-0.51" y="1.16" width="12.98" height="10.82"/></clipPath><clipPath id="clip-path-17"><polygon class="cls-1" points="-0.48 8.78 7.67 11.95 12.47 1.24 -0.48 8.78"/></clipPath><clipPath id="clip-path-19"><rect class="cls-1" x="0.62" y="0.11" width="10.73" height="12.91" transform="translate(-0.62 12.51) rotate(-89.63)"/></clipPath><linearGradient id="Dégradé_sans_nom_94-2" x1="0.09" y1="24.58" x2="1.09" y2="24.58" gradientTransform="translate(-0.38 -259.82) scale(10.84)" xlink:href="#Dégradé_sans_nom_94"/><clipPath id="clip-path-20"><rect class="cls-1" x="17.15" y="10.45" width="8.14" height="5.86"/></clipPath><clipPath id="clip-path-21"><polygon class="cls-1" points="22.78 16.3 25.27 13.26 17.19 10.45 22.78 16.3"/></clipPath><clipPath id="clip-path-23"><polygon class="cls-1" points="17.15 16.26 25.11 16.32 25.25 16.32 25.29 10.51 17.19 10.45 17.15 16.26"/></clipPath><linearGradient id="Dégradé_sans_nom_100-3" x1="0.17" y1="24.58" x2="1.17" y2="24.58" gradientTransform="translate(17.35 -128.67) scale(5.78)" xlink:href="#Dégradé_sans_nom_100"/><clipPath id="clip-path-24"><rect class="cls-1" x="4.13" y="14.24" width="12.47" height="11.82"/></clipPath><clipPath id="clip-path-25"><polygon class="cls-1" points="4.18 18.02 14.82 26.04 16.6 14.32 4.18 18.02"/></clipPath><clipPath id="clip-path-27"><polygon class="cls-1" points="4.13 25.97 16.39 26.05 16.53 26.05 16.6 14.32 4.21 14.24 4.13 25.97"/></clipPath><linearGradient id="Dégradé_sans_nom_94-3" x1="0.09" y1="24.58" x2="1.09" y2="24.58" gradientTransform="translate(3.5 -268.38) scale(11.74)" xlink:href="#Dégradé_sans_nom_94"/><clipPath id="clip-path-28"><rect class="cls-1" x="12.42" y="1.24" width="12.74" height="9.26"/></clipPath><clipPath id="clip-path-29"><polygon class="cls-1" points="17.19 10.45 25.13 6.42 12.47 1.24 17.19 10.45"/></clipPath><linearGradient id="Dégradé_sans_nom_100-4" x1="0.11" y1="24.59" x2="1.11" y2="24.59" gradientTransform="translate(13.19 -222.29) scale(9.28)" xlink:href="#Dégradé_sans_nom_100"/><clipPath id="clip-path-30"><rect class="cls-1" x="17.17" y="6.37" width="8.14" height="6.9"/></clipPath><clipPath id="clip-path-31"><polygon class="cls-1" points="25.13 6.42 17.19 10.45 25.27 13.26 25.13 6.42 25.13 6.42"/></clipPath><linearGradient id="Dégradé_sans_nom_100-5" x1="0.15" y1="24.58" x2="1.15" y2="24.58" gradientTransform="translate(16.81 -159.52) scale(6.89)" xlink:href="#Dégradé_sans_nom_100"/><clipPath id="clip-path-32"><rect class="cls-1" x="9.71" y="1.23" width="7.54" height="9.23"/></clipPath><clipPath id="clip-path-33"><polygon class="cls-1" points="9.73 7.37 17.19 10.45 17.19 10.45 12.47 1.24 9.73 7.37"/></clipPath><linearGradient id="Dégradé_sans_nom_100-6" x1="0.11" y1="24.58" x2="1.11" y2="24.58" gradientTransform="translate(7.88 -222.25) scale(9.28)" xlink:href="#Dégradé_sans_nom_100"/><clipPath id="clip-path-34"><rect class="cls-1" x="4.18" y="11.93" width="12.44" height="6.18"/></clipPath><clipPath id="clip-path-35"><polygon class="cls-1" points="4.18 18.02 16.6 14.32 7.67 11.95 4.18 18.02"/></clipPath><clipPath id="clip-path-37"><polygon class="cls-1" points="4.22 11.93 4.18 18.02 16.58 18.1 16.62 12.01 4.36 11.93 4.22 11.93"/></clipPath><linearGradient id="Dégradé_sans_nom_100-7" x1="0.16" y1="24.58" x2="1.16" y2="24.58" gradientTransform="translate(6.34 -135.28) scale(6.11)" xlink:href="#Dégradé_sans_nom_100"/><clipPath id="clip-path-38"><rect class="cls-1" x="9.68" y="7.37" width="7.53" height="6.95"/></clipPath><clipPath id="clip-path-39"><polygon class="cls-1" points="16.6 14.32 17.19 10.45 9.73 7.37 16.6 14.32"/></clipPath><clipPath id="clip-path-41"><polygon class="cls-1" points="9.68 14.27 17.02 14.32 17.16 14.32 17.21 7.42 9.73 7.37 9.68 14.27"/></clipPath><linearGradient id="Dégradé_sans_nom_100-8" x1="0.15" y1="24.58" x2="1.15" y2="24.58" gradientTransform="translate(8.97 -158.52) scale(6.89)" xlink:href="#Dégradé_sans_nom_100"/><clipPath id="clip-path-42"><rect class="cls-1" x="7.66" y="7.35" width="8.99" height="6.96"/></clipPath><clipPath id="clip-path-43"><polygon class="cls-1" points="7.67 11.95 16.6 14.32 9.73 7.37 7.67 11.95"/></clipPath><linearGradient id="Dégradé_sans_nom_100-9" x1="0.15" y1="24.58" x2="1.15" y2="24.58" gradientTransform="translate(7.67 -158.5) scale(6.89)" xlink:href="#Dégradé_sans_nom_100"/></defs><title>02-Droit</title><g class="cls-2"><g class="cls-2"><path class="cls-3" d="M11.79,23.59A11.79,11.79,0,1,0,0,11.79,11.79,11.79,0,0,0,11.79,23.59"/></g><g class="cls-4"><path class="cls-5" d="M11.68,23.75A11.84,11.84,0,1,0-.16,11.91,11.84,11.84,0,0,0,11.68,23.75"/><g class="cls-6"><g class="cls-7"><g class="cls-8"><g class="cls-10"><g class="cls-11"><g class="cls-12"><g class="cls-6"><g class="cls-11"><g class="cls-13"><rect class="cls-14" x="14.4" y="-4.35" width="8.82" height="12.8" transform="translate(16.64 20.85) rotate(-89.63)"/></g></g></g></g></g></g><g class="cls-15"><g class="cls-16"><g class="cls-17"><rect class="cls-18" x="-4.46" y="11.12" width="16" height="16.05" transform="translate(-12.43 8) rotate(-44.63)"/></g></g></g><g class="cls-19"><g class="cls-20"><g class="cls-21"><g class="cls-6"><g class="cls-20"><g class="cls-22"><rect class="cls-23" x="-0.03" y="8.23" width="7.22" height="8.27" transform="translate(-8.81 15.87) rotate(-89.63)"/></g></g></g></g></g></g><g class="cls-24"><g class="cls-25"><g class="cls-26"><g class="cls-27"><g class="cls-25"><g class="cls-28"><rect class="cls-29" x="0.53" y="0.04" width="10.9" height="13.05" transform="translate(-0.62 12.51) rotate(-89.63)"/></g></g></g></g></g></g><g class="cls-24"><g class="cls-30"><g class="cls-31"><g class="cls-6"><g class="cls-30"><g class="cls-32"><rect class="cls-33" x="18.26" y="9.3" width="5.92" height="8.17" transform="translate(7.7 34.52) rotate(-89.63)"/></g></g></g></g></g></g><g class="cls-34"><g class="cls-35"><g class="cls-36"><g class="cls-6"><g class="cls-35"><g class="cls-37"><rect class="cls-38" x="4.42" y="13.87" width="11.89" height="12.55" transform="matrix(0.01, -1, 1, 0.01, -9.85, 30.38)"/></g></g></g></g></g></g><g class="cls-24"><g class="cls-39"><g class="cls-40"><rect class="cls-41" x="14.16" y="-0.51" width="9.29" height="12.71" transform="translate(12.83 24.61) rotate(-89.63)"/></g></g></g><g class="cls-9"><g class="cls-42"><g class="cls-43"><rect class="cls-44" x="17.78" y="5.78" width="6.9" height="8.12" transform="translate(11.25 31) rotate(-89.63)"/></g></g></g><g class="cls-45"><g class="cls-46"><g class="cls-47"><rect class="cls-48" x="8.83" y="2.09" width="9.26" height="7.52" transform="translate(7.52 19.27) rotate(-89.63)"/></g></g></g><g class="cls-49"><g class="cls-50"><g class="cls-51"><g class="cls-52"><g class="cls-50"><g class="cls-53"><rect class="cls-54" x="7.27" y="8.78" width="6.26" height="12.48" transform="translate(-4.68 25.32) rotate(-89.63)"/></g></g></g></g></g></g><g class="cls-34"><g class="cls-55"><g class="cls-56"><g class="cls-57"><g class="cls-55"><g class="cls-58"><rect class="cls-59" x="9.95" y="7.06" width="7" height="7.57" transform="translate(2.52 24.22) rotate(-89.63)"/></g></g></g></g></g></g><g class="cls-49"><g class="cls-60"><g class="cls-61"><rect class="cls-62" x="8.63" y="6.35" width="7.01" height="8.97" transform="translate(1.22 22.91) rotate(-89.63)"/></g></g></g></g></g></g><path class="cls-63" d="M11.73,3.68,18.3,7.25H5l6.71-3.57m0-.88a.41.41,0,0,0-.17,0L4.28,7A.47.47,0,0,0,4,7.48a.44.44,0,0,0,.42.36H19a.44.44,0,0,0,.42-.36A.47.47,0,0,0,19.18,7L11.91,2.84a.42.42,0,0,0-.17,0"/><path class="cls-63" d="M7.84,9.48a.22.22,0,0,0,.21-.23V9.19A.22.22,0,0,0,7.84,9H5.3a.22.22,0,0,0-.22.23v.07a.22.22,0,0,0,.22.23h.27v6.7H5.3a.22.22,0,0,0-.22.23v.07a.22.22,0,0,0,.22.23H7.84a.22.22,0,0,0,.21-.23v-.07a.22.22,0,0,0-.21-.23H7.57V9.48Z"/><path class="cls-63" d="M18.16,9.48a.22.22,0,0,0,.21-.23V9.19A.22.22,0,0,0,18.16,9H15.63a.22.22,0,0,0-.22.23v.07a.22.22,0,0,0,.22.23h.27v6.7h-.27a.22.22,0,0,0-.22.23v.07a.22.22,0,0,0,.22.23h2.54a.22.22,0,0,0,.21-.23v-.07a.22.22,0,0,0-.21-.23H17.9V9.48Z"/><path class="cls-63" d="M12.92,9.48a.22.22,0,0,0,.21-.23V9.19A.22.22,0,0,0,12.92,9H10.38a.22.22,0,0,0-.22.23v.07a.22.22,0,0,0,.22.23h.27v6.7h-.27a.22.22,0,0,0-.22.23v.07a.22.22,0,0,0,.22.23h2.54a.22.22,0,0,0,.21-.23v-.07a.22.22,0,0,0-.21-.23h-.27V9.48Z"/><rect class="cls-63" x="4.38" y="8.2" width="14.7" height="0.53"/><polygon class="cls-63" points="11.78 3.42 4.71 7.41 18.91 7.48 11.78 3.42"/><path class="cls-5" d="M13.61,5.51a1.89,1.89,0,1,1-1.89-1.89,1.89,1.89,0,0,1,1.89,1.89"/><path class="cls-63" d="M13.18,6l-.48-1a.22.22,0,0,0,.1-.09,0,0,0,0,0,0,0,0,0,0,0,0,0,0,.14.14,0,0,1-.09.07.06.06,0,0,1-.05,0,.19.19,0,0,1,0-.12.06.06,0,0,0,0-.06.11.11,0,0,0,0-.08l-.07,0-.19-.06a2.88,2.88,0,0,0-.5,0v-.1c0-.1-.21-.1-.21,0v.1a2.88,2.88,0,0,0-.5,0l-.19.06-.07,0a.11.11,0,0,0,0,.08.06.06,0,0,0,0,.06.19.19,0,0,1,0,.12.06.06,0,0,1-.05,0,.14.14,0,0,1-.09-.07,0,0,0,0,0,0,0,0,0,0,0,0,0,0,.19.19,0,0,0,.12.09L10.3,6a0,0,0,0,0,0,0c.06.19.16.33.53.33s.46-.14.53-.33a0,0,0,0,0,0,0l-.49-1,0,0a.26.26,0,0,0,0-.16.06.06,0,0,0,0,0l.06,0,.17,0a3,3,0,0,1,.44,0V4.8h0L11.6,6.42h.26L11.8,4.8h0V4.64a3,3,0,0,1,.43,0l.17,0,.06,0a.06.06,0,0,0,0,0,.26.26,0,0,0,0,.16.12.12,0,0,0,.07,0l-.48,1a0,0,0,0,0,0,0c.06.19.16.33.53.33s.46-.14.53-.33a0,0,0,0,0,0,0M10.33,6,10.79,5,10.7,6Zm1,0h-.57l.1-.94Zm.88,0L12.66,5l.16.94Zm.66,0-.15-.9.46.9Z"/><path class="cls-63" d="M12,6.45h-.48a.15.15,0,0,0-.15.15v.06h.77V6.59A.15.15,0,0,0,12,6.45"/><path class="cls-63" d="M12.15,6.68h-.84a.09.09,0,0,0-.09.09v.06h1V6.76a.09.09,0,0,0-.09-.09"/><path class="cls-63" d="M11.79,4.34a.37.37,0,0,0,0-.11c0-.1,0-.18-.08-.18s-.08.08-.08.18a.37.37,0,0,0,0,.11.15.15,0,0,1,.12,0"/></g></g></svg>