<svg id="Calque_1" data-name="Calque 1" xmlns="http://www.w3.org/2000/svg" xmlns:xlink="http://www.w3.org/1999/xlink" viewBox="0 0 23.59 15.58"><defs><style>.cls-1{fill:none;}.cls-2{clip-path:url(#clip-path);}.cls-3{clip-path:url(#clip-path-2);}.cls-4{fill:#cacaca;}.cls-5{clip-path:url(#clip-path-3);}.cls-6{fill:#bf0066;}.cls-7{opacity:0.7;}.cls-8{clip-path:url(#clip-path-4);}.cls-9{clip-path:url(#clip-path-5);}.cls-10{opacity:0.18;}.cls-11{opacity:0.4;}.cls-12{clip-path:url(#clip-path-6);}.cls-13{clip-path:url(#clip-path-7);}.cls-14{clip-path:url(#clip-path-9);}.cls-15{fill:url(#Dégradé_sans_nom_100);}.cls-16{opacity:0.48;}.cls-17{clip-path:url(#clip-path-10);}.cls-18{clip-path:url(#clip-path-11);}.cls-19{fill:url(#Dégradé_sans_nom_94);}.cls-20{opacity:0.2;}.cls-21{clip-path:url(#clip-path-12);}.cls-22{clip-path:url(#clip-path-13);}.cls-23{clip-path:url(#clip-path-15);}.cls-24{fill:url(#Dégradé_sans_nom_100-2);}.cls-25{opacity:0.38;}.cls-26{clip-path:url(#clip-path-16);}.cls-27{clip-path:url(#clip-path-17);}.cls-28{opacity:0.6;}.cls-29{clip-path:url(#clip-path-19);}.cls-30{fill:url(#Dégradé_sans_nom_94-2);}.cls-31{clip-path:url(#clip-path-20);}.cls-32{clip-path:url(#clip-path-21);}.cls-33{clip-path:url(#clip-path-23);}.cls-34{fill:url(#Dégradé_sans_nom_100-3);}.cls-35{opacity:0.58;}.cls-36{clip-path:url(#clip-path-24);}.cls-37{clip-path:url(#clip-path-25);}.cls-38{clip-path:url(#clip-path-27);}.cls-39{fill:url(#Dégradé_sans_nom_94-3);}.cls-40{clip-path:url(#clip-path-28);}.cls-41{clip-path:url(#clip-path-29);}.cls-42{fill:url(#Dégradé_sans_nom_100-4);}.cls-43{clip-path:url(#clip-path-30);}.cls-44{clip-path:url(#clip-path-31);}.cls-45{fill:url(#Dégradé_sans_nom_100-5);}.cls-46{opacity:0.08;}.cls-47{clip-path:url(#clip-path-32);}.cls-48{clip-path:url(#clip-path-33);}.cls-49{fill:url(#Dégradé_sans_nom_100-6);}.cls-50{opacity:0.28;}.cls-51{clip-path:url(#clip-path-34);}.cls-52{clip-path:url(#clip-path-35);}.cls-53{opacity:0.5;}.cls-54{clip-path:url(#clip-path-37);}.cls-55{fill:url(#Dégradé_sans_nom_100-7);}.cls-56{clip-path:url(#clip-path-38);}.cls-57{clip-path:url(#clip-path-39);}.cls-58{opacity:0.8;}.cls-59{clip-path:url(#clip-path-41);}.cls-60{fill:url(#Dégradé_sans_nom_100-8);}.cls-61{clip-path:url(#clip-path-42);}.cls-62{clip-path:url(#clip-path-43);}.cls-63{fill:url(#Dégradé_sans_nom_100-9);}.cls-64{fill:#fff;}.cls-65{clip-path:url(#clip-path-44);}.cls-66{fill:#d2e3f1;}.cls-67{clip-path:url(#clip-path-46);}.cls-68{clip-path:url(#clip-path-47);}.cls-69{fill:url(#Dégradé_sans_nom_37);}.cls-70{clip-path:url(#clip-path-49);}.cls-71{clip-path:url(#clip-path-50);}.cls-72{fill:url(#Dégradé_sans_nom_38);}.cls-73{clip-path:url(#clip-path-52);}.cls-74{clip-path:url(#clip-path-53);}.cls-75{fill:url(#Dégradé_sans_nom_39);}</style><clipPath id="clip-path"><rect class="cls-1" width="23.59" height="24.43"/></clipPath><clipPath id="clip-path-2"><rect class="cls-1" width="23.59" height="24.02"/></clipPath><clipPath id="clip-path-3"><path class="cls-1" d="M11.65,0a11.79,11.79,0,1,0,.29,0Z"/></clipPath><clipPath id="clip-path-4"><rect class="cls-1" x="-7.6" y="-6.73" width="33.09" height="37.19"/></clipPath><clipPath id="clip-path-5"><rect class="cls-1" x="-7.6" y="-6.73" width="33.09" height="37.19"/></clipPath><clipPath id="clip-path-6"><rect class="cls-1" x="12.61" y="-2.31" width="12.74" height="8.73"/></clipPath><clipPath id="clip-path-7"><polygon class="cls-1" points="12.65 1.25 25.3 6.42 18.7 -2.27 12.65 1.25"/></clipPath><clipPath id="clip-path-9"><rect class="cls-1" x="14.66" y="-4.29" width="8.65" height="12.69" transform="translate(16.81 21.02) rotate(-89.63)"/></clipPath><linearGradient id="Dégradé_sans_nom_100" x1="0.12" y1="24.58" x2="1.12" y2="24.58" gradientTransform="translate(13.9 -208.3) scale(8.56)" gradientUnits="userSpaceOnUse"><stop offset="0" stop-color="#d0d0d0"/><stop offset="0.2" stop-color="#d0d0d0"/><stop offset="0.99" stop-color="#fff"/><stop offset="1" stop-color="#fff"/></linearGradient><clipPath id="clip-path-10"><rect class="cls-1" x="-7.6" y="7.84" width="22.62" height="22.62"/></clipPath><clipPath id="clip-path-11"><polygon class="cls-1" points="-0.36 15.9 -0.43 26.35 7.84 11.95 -0.36 15.9"/></clipPath><linearGradient id="Dégradé_sans_nom_94" x1="0.04" y1="24.63" x2="1.04" y2="24.63" gradientTransform="matrix(0, -16, 16, 0, -390.32, 27.86)" gradientUnits="userSpaceOnUse"><stop offset="0" stop-color="#fff"/><stop offset="0.01" stop-color="#fff"/><stop offset="0.8" stop-color="#d0d0d0"/><stop offset="1" stop-color="#d0d0d0"/></linearGradient><clipPath id="clip-path-12"><rect class="cls-1" x="-0.36" y="8.79" width="8.22" height="7.17"/></clipPath><clipPath id="clip-path-13"><polygon class="cls-1" points="-0.31 8.79 -0.36 15.9 7.84 11.95 -0.31 8.79"/></clipPath><clipPath id="clip-path-15"><rect class="cls-1" x="0.2" y="8.28" width="7.11" height="8.18" transform="translate(-8.64 16.04) rotate(-89.63)"/></clipPath><linearGradient id="Dégradé_sans_nom_100-2" x1="0.14" y1="24.58" x2="1.14" y2="24.58" gradientTransform="translate(-0.8 -159.71) scale(7)" xlink:href="#Dégradé_sans_nom_100"/><clipPath id="clip-path-16"><rect class="cls-1" x="-0.33" y="1.16" width="12.98" height="10.82"/></clipPath><clipPath id="clip-path-17"><polygon class="cls-1" points="-0.31 8.79 7.84 11.95 12.65 1.25 -0.31 8.79"/></clipPath><clipPath id="clip-path-19"><rect class="cls-1" x="0.79" y="0.12" width="10.74" height="12.91" transform="translate(-0.46 12.69) rotate(-89.63)"/></clipPath><linearGradient id="Dégradé_sans_nom_94-2" x1="0.09" y1="24.58" x2="1.09" y2="24.58" gradientTransform="translate(-0.21 -259.82) scale(10.84)" xlink:href="#Dégradé_sans_nom_94"/><clipPath id="clip-path-20"><rect class="cls-1" x="17.32" y="10.46" width="8.14" height="5.86"/></clipPath><clipPath id="clip-path-21"><polygon class="cls-1" points="17.36 10.46 22.95 16.31 25.44 13.27 17.36 10.46"/></clipPath><clipPath id="clip-path-23"><rect class="cls-1" x="18.48" y="9.34" width="5.81" height="8.1" transform="translate(7.86 34.69) rotate(-89.63)"/></clipPath><linearGradient id="Dégradé_sans_nom_100-3" x1="0.17" y1="24.58" x2="1.17" y2="24.58" gradientTransform="translate(17.52 -128.66) scale(5.78)" xlink:href="#Dégradé_sans_nom_100"/><clipPath id="clip-path-24"><rect class="cls-1" x="4.3" y="14.24" width="12.47" height="11.82"/></clipPath><clipPath id="clip-path-25"><polygon class="cls-1" points="4.35 18.03 14.99 26.05 16.77 14.32 4.35 18.03"/></clipPath><clipPath id="clip-path-27"><polygon class="cls-1" points="4.3 25.98 16.56 26.06 16.7 26.06 16.77 14.32 4.38 14.24 4.3 25.98"/></clipPath><linearGradient id="Dégradé_sans_nom_94-3" x1="0.09" y1="24.59" x2="1.09" y2="24.59" gradientTransform="translate(3.67 -268.37) scale(11.74)" xlink:href="#Dégradé_sans_nom_94"/><clipPath id="clip-path-28"><rect class="cls-1" x="12.59" y="1.25" width="12.74" height="9.26"/></clipPath><clipPath id="clip-path-29"><polygon class="cls-1" points="12.65 1.25 17.36 10.46 25.3 6.42 12.65 1.25 12.65 1.25"/></clipPath><linearGradient id="Dégradé_sans_nom_100-4" x1="0.11" y1="24.59" x2="1.11" y2="24.59" gradientTransform="translate(13.36 -222.28) scale(9.28)" xlink:href="#Dégradé_sans_nom_100"/><clipPath id="clip-path-30"><rect class="cls-1" x="17.34" y="6.37" width="8.14" height="6.9"/></clipPath><clipPath id="clip-path-31"><polygon class="cls-1" points="17.36 10.46 25.44 13.27 25.44 13.24 25.3 6.42 17.36 10.46"/></clipPath><linearGradient id="Dégradé_sans_nom_100-5" x1="0.15" y1="24.58" x2="1.15" y2="24.58" gradientTransform="translate(16.98 -159.52) scale(6.89)" xlink:href="#Dégradé_sans_nom_100"/><clipPath id="clip-path-32"><rect class="cls-1" x="9.88" y="1.23" width="7.54" height="9.23"/></clipPath><clipPath id="clip-path-33"><polygon class="cls-1" points="9.9 7.37 17.36 10.46 12.65 1.25 9.9 7.37"/></clipPath><linearGradient id="Dégradé_sans_nom_100-6" x1="0.11" y1="24.58" x2="1.11" y2="24.58" gradientTransform="translate(8.05 -222.25) scale(9.28)" xlink:href="#Dégradé_sans_nom_100"/><clipPath id="clip-path-34"><rect class="cls-1" x="4.35" y="11.93" width="12.44" height="6.18"/></clipPath><clipPath id="clip-path-35"><polygon class="cls-1" points="4.35 18.03 16.77 14.32 7.84 11.95 4.35 18.03"/></clipPath><clipPath id="clip-path-37"><polygon class="cls-1" points="4.39 11.93 4.35 18.03 16.75 18.11 16.79 12.01 4.53 11.93 4.39 11.93"/></clipPath><linearGradient id="Dégradé_sans_nom_100-7" x1="0.16" y1="24.58" x2="1.16" y2="24.58" gradientTransform="translate(6.51 -135.27) scale(6.11)" xlink:href="#Dégradé_sans_nom_100"/><clipPath id="clip-path-38"><rect class="cls-1" x="9.86" y="7.37" width="7.53" height="6.95"/></clipPath><clipPath id="clip-path-39"><polygon class="cls-1" points="16.77 14.32 17.36 10.46 9.9 7.37 16.77 14.32"/></clipPath><clipPath id="clip-path-41"><rect class="cls-1" x="10.17" y="7.11" width="6.91" height="7.48" transform="translate(2.68 24.4) rotate(-89.63)"/></clipPath><linearGradient id="Dégradé_sans_nom_100-8" x1="0.15" y1="24.58" x2="1.15" y2="24.58" gradientTransform="translate(9.14 -158.51) scale(6.89)" xlink:href="#Dégradé_sans_nom_100"/><clipPath id="clip-path-42"><rect class="cls-1" x="7.83" y="7.36" width="8.99" height="6.96"/></clipPath><clipPath id="clip-path-43"><polygon class="cls-1" points="7.84 11.95 16.77 14.32 9.9 7.37 7.84 11.95"/></clipPath><linearGradient id="Dégradé_sans_nom_100-9" x1="0.15" y1="24.58" x2="1.15" y2="24.58" gradientTransform="translate(7.84 -158.5) scale(6.89)" xlink:href="#Dégradé_sans_nom_100"/><clipPath id="clip-path-44"><path class="cls-1" d="M11.17,4.49c-1,.2-3.3.6-4,2.55s3.65,2,5.21,2.15,1.55,2.25,2.15,3.25,1.15.5,2.3-.45,1.05-4.6-.85-6.26A6.28,6.28,0,0,0,12,4.45a6.58,6.58,0,0,0-.81,0"/></clipPath><clipPath id="clip-path-46"><path class="cls-1" d="M8.23,9.18a.27.27,0,0,1-.34.13A.26.26,0,0,1,7.77,9a.26.26,0,0,1,.47.22"/></clipPath><clipPath id="clip-path-47"><rect class="cls-1" x="7.66" y="8.74" width="0.67" height="0.68" transform="translate(-2.58 14.96) rotate(-77.67)"/></clipPath><linearGradient id="Dégradé_sans_nom_37" x1="-2" y1="24.16" x2="-1" y2="24.16" gradientTransform="matrix(-0.49, 0, 0, 0.49, 7.26, -2.72)" gradientUnits="userSpaceOnUse"><stop offset="0" stop-color="#867c73"/><stop offset="1" stop-color="#847e5f"/></linearGradient><clipPath id="clip-path-49"><path class="cls-1" d="M8,8.84l0,0A.29.29,0,0,1,8.23,9,.28.28,0,0,0,8,8.84"/></clipPath><clipPath id="clip-path-50"><rect class="cls-1" x="7.93" y="8.76" width="0.31" height="0.3" transform="translate(-3.89 7.7) rotate(-41.99)"/></clipPath><linearGradient id="Dégradé_sans_nom_38" x1="-7.22" y1="31.17" x2="-6.22" y2="31.17" gradientTransform="matrix(0, 0.1, 0.1, 0, 4.88, 9.53)" gradientUnits="userSpaceOnUse"><stop offset="0" stop-color="#b4a980"/><stop offset="0.16" stop-color="#b5af8f"/><stop offset="0.72" stop-color="#b7c2c0"/><stop offset="1" stop-color="#b8c9d3"/></linearGradient><clipPath id="clip-path-52"><path class="cls-1" d="M8.23,9.2a.24.24,0,1,1-.12-.32.24.24,0,0,1,.12.32"/></clipPath><clipPath id="clip-path-53"><rect class="cls-1" x="7.66" y="8.74" width="0.71" height="0.71" transform="translate(-2.87 3.76) rotate(-22.47)"/></clipPath><linearGradient id="Dégradé_sans_nom_39" x1="0.82" y1="26.56" x2="1.82" y2="26.56" gradientTransform="matrix(0.47, 0, 0, -0.47, 7.41, 21.51)" gradientUnits="userSpaceOnUse"><stop offset="0" stop-color="#9caab3"/><stop offset="0.49" stop-color="#acbbc5"/><stop offset="1" stop-color="#b8c9d3"/></linearGradient></defs><title>03-RH</title><g class="cls-2"><g class="cls-3"><path class="cls-4" d="M11.79,23.65A11.79,11.79,0,1,0,0,11.86,11.79,11.79,0,0,0,11.79,23.65"/></g><g class="cls-5"><path class="cls-6" d="M11.85,23.76A11.84,11.84,0,1,0,0,11.92,11.84,11.84,0,0,0,11.85,23.76"/><g class="cls-7"><g class="cls-8"><g class="cls-9"><g class="cls-11"><g class="cls-12"><g class="cls-13"><g class="cls-7"><g class="cls-12"><g class="cls-14"><rect class="cls-15" x="14.58" y="-4.34" width="8.82" height="12.8" transform="translate(16.81 21.02) rotate(-89.63)"/></g></g></g></g></g></g><g class="cls-16"><g class="cls-17"><g class="cls-18"><rect class="cls-19" x="-4.29" y="11.12" width="16" height="16.05" transform="translate(-12.38 8.13) rotate(-44.63)"/></g></g></g><g class="cls-20"><g class="cls-21"><g class="cls-22"><g class="cls-7"><g class="cls-21"><g class="cls-23"><rect class="cls-24" x="0.14" y="8.24" width="7.22" height="8.27" transform="translate(-8.64 16.04) rotate(-89.63)"/></g></g></g></g></g></g><g class="cls-25"><g class="cls-26"><g class="cls-27"><g class="cls-28"><g class="cls-26"><g class="cls-29"><rect class="cls-30" x="0.7" y="0.05" width="10.9" height="13.05" transform="translate(-0.46 12.69) rotate(-89.63)"/></g></g></g></g></g></g><g class="cls-25"><g class="cls-31"><g class="cls-32"><g class="cls-7"><g class="cls-31"><g class="cls-33"><rect class="cls-34" x="18.43" y="9.3" width="5.92" height="8.17" transform="translate(7.86 34.69) rotate(-89.63)"/></g></g></g></g></g></g><g class="cls-35"><g class="cls-36"><g class="cls-37"><g class="cls-7"><g class="cls-36"><g class="cls-38"><rect class="cls-39" x="4.59" y="13.87" width="11.9" height="12.55" transform="matrix(0.01, -1, 1, 0.01, -9.68, 30.55)"/></g></g></g></g></g></g><g class="cls-25"><g class="cls-40"><g class="cls-41"><rect class="cls-42" x="14.33" y="-0.5" width="9.29" height="12.71" transform="translate(13 24.79) rotate(-89.63)"/></g></g></g><g class="cls-10"><g class="cls-43"><g class="cls-44"><rect class="cls-45" x="17.95" y="5.78" width="6.9" height="8.13" transform="translate(11.42 31.18) rotate(-89.63)"/></g></g></g><g class="cls-46"><g class="cls-47"><g class="cls-48"><rect class="cls-49" x="9" y="2.09" width="9.26" height="7.52" transform="translate(7.69 19.44) rotate(-89.63)"/></g></g></g><g class="cls-50"><g class="cls-51"><g class="cls-52"><g class="cls-53"><g class="cls-51"><g class="cls-54"><rect class="cls-55" x="7.44" y="8.78" width="6.26" height="12.48" transform="translate(-4.52 25.49) rotate(-89.63)"/></g></g></g></g></g></g><g class="cls-35"><g class="cls-56"><g class="cls-57"><g class="cls-58"><g class="cls-56"><g class="cls-59"><rect class="cls-60" x="10.12" y="7.06" width="7" height="7.57" transform="translate(2.68 24.4) rotate(-89.63)"/></g></g></g></g></g></g><g class="cls-50"><g class="cls-61"><g class="cls-62"><rect class="cls-63" x="8.81" y="6.36" width="7.01" height="8.97" transform="matrix(0.01, -1, 1, 0.01, 1.38, 23.08)"/></g></g></g></g></g></g><path class="cls-64" d="M7.15,5.12A3.05,3.05,0,0,0,6,6.87a4.09,4.09,0,0,1-.42,1.51c-.1.2-.32.93-.18,1.14a.87.87,0,0,1,.06.92,11.44,11.44,0,0,0-.82,1c-.07.18-.69.8-.54,1.07s.4.43.92.7c.2.11.12.35.1.49a.65.65,0,0,1-.19.31s-.09.33.18.48a.66.66,0,0,1,.26.23s-.33.32-.3.4a3.48,3.48,0,0,0,.37.44c.15.18.3.3.12.5a.78.78,0,0,0,0,.94,2.26,2.26,0,0,0,2,.52,3.52,3.52,0,0,1,2.63.54,12.63,12.63,0,0,1,.6,2.16h6.81s-.31-1.19-.54-2-.9-3.27-.53-3.77a6.89,6.89,0,0,0,2.23-5.74c-.2-3-2.88-5.39-6.49-5.33a8.71,8.71,0,0,0-5.08,1.7"/><path class="cls-6" d="M11.17,4.49A6.87,6.87,0,0,1,16,5.74c1.9,1.65,2,5.31.85,6.26s-1.7,1.45-2.3.45S14,9.35,12.42,9.2,6.56,9,7.21,7s3-2.35,4-2.55"/></g><g class="cls-65"><path class="cls-64" d="M9.61,9.39l-.18-.06,0,.08.15.11s0,0,0,0l0,0h0l-.17-.09-.05.07.13.14a0,0,0,0,1,0,0h0l0,0h0l-.16-.12-.06.06.11.15a0,0,0,0,1,0,0l0,0h0L9,9.82,9,9.87,9,10a0,0,0,0,1,0,0H9l-.11-.15-.08,0,.06.18a0,0,0,0,1,0,0l0,0h0L8.66,10l-.09,0,0,.19a0,0,0,0,1,0,0H8.52l-.06-.19H8.37v.19a0,0,0,0,1,0,0H8.28l0-.2H8.16l0,.19a0,0,0,0,1,0,0H8v-.19l-.09,0-.06.18,0,0H7.81a0,0,0,0,1,0,0l0-.19-.09,0-.09.17H7.59a0,0,0,0,1,0,0L7.65,10l-.08,0-.11.15h0l0,0h0a0,0,0,0,1,0,0l.09-.17-.07-.05L7.26,10h0l0,0s0,0,0,0l.11-.15-.06-.06-.15.11h0l0,0a0,0,0,0,1,0,0l.14-.14-.05-.07-.17.09h0v0h0s0,0,0,0l.15-.11,0-.08-.18.06h0l0,0a0,0,0,0,1,0,0L7,9.22l0-.09-.19,0h0v0h0a0,0,0,0,1,0,0L6.92,9V8.93H6.69s0,0,0,0a0,0,0,0,1,0,0l.19,0s0-.06,0-.09l-.19,0h0a0,0,0,0,1,0,0h0v0a0,0,0,0,1,0,0h.19l0-.09-.18-.06h0a0,0,0,0,1,0,0v0a0,0,0,0,1,0,0l.19,0,0-.09-.17-.09h0a0,0,0,0,1,0,0v0h0L7,8.2l0-.08L6.92,8s0,0,0,0l0,0H7L7.14,8l.05-.07-.13-.13a0,0,0,0,1,0,0h0l0,0h0l.16.12.07-.06-.11-.16a0,0,0,0,1,0,0l0,0h0l.14.14.07-.05-.08-.17a0,0,0,0,1,0,0H7.5l.11.16.08,0-.05-.18a0,0,0,0,1,0,0l0,0h0l.09.17.09,0,0-.19a0,0,0,0,1,0,0h.07L8,7.45h.09V7.25a0,0,0,0,1,0,0h.06l0,.2H8.3l0-.19a0,0,0,0,1,0,0h.06v.19H8.5l.06-.18,0,0h.05a0,0,0,0,1,0,0l0,.19.09,0,.09-.17h.08a0,0,0,0,1,0,0l-.06.18.08,0L9,7.44H9l0,0h0a0,0,0,0,1,0,0L9,7.66l.07.05.14-.13h0l0,0s0,0,0,0l-.12.16.06.06.16-.11h0l0,0a0,0,0,0,1,0,0l-.14.14L9.34,8l.17-.09h0V8h0s0,0,0,0l-.15.11,0,.08.18-.06h0l0,0a0,0,0,0,1,0,0l-.17.09,0,.09.19,0h0v0h0a0,0,0,0,1,0,0l-.18.06a.85.85,0,0,1,0,.09h.21v0a0,0,0,0,1,0,0l-.19,0s0,.06,0,.09l.19,0h0a0,0,0,0,1,0,0h0s0,0,0,0a0,0,0,0,1,0,0H9.55l0,.09.18.06h0a0,0,0,0,1,0,0v0a0,0,0,0,1,0,0l-.19,0,0,.09.17.09h0a0,0,0,0,1,0,0v0h0M9,9.37A1,1,0,0,0,8.91,8l-.45.62a.26.26,0,0,1,0,.23Zm-1.48.15L8,8.9a.27.27,0,0,1,0-.23l-.55-.52a1,1,0,0,0-.07,1.14,1,1,0,0,0,.19.23m1.19.1A1.06,1.06,0,0,0,9,9.44L8.37,9a.27.27,0,0,1-.23,0l-.52.56.19.11a1,1,0,0,0,.95-.06m-1-1.73a1,1,0,0,0-.24.2l.61.45a.26.26,0,0,1,.23,0L8.85,8l-.19-.11a1,1,0,0,0-.95.06"/><path class="cls-66" d="M9.9,3.69l-.09,0,0-.05.06,0,.06,0"/><path class="cls-64" d="M11.31,6.17v0h0s0,0,0,0l-.18-.07,0,.08.15.12a0,0,0,0,1,0,0l0,0h0L11,6.34l-.06.07.13.15a0,0,0,0,1,0,0l0,0h0l-.16-.12-.07.06.11.16a0,0,0,0,1,0,0l0,0h0l-.14-.15-.08.05.08.18a0,0,0,0,1,0,0h0l0,0h0l-.11-.16-.09,0,.05.19a0,0,0,0,1,0,0l0,0h0l-.08-.18-.09,0,0,.2a0,0,0,0,1,0,0h-.06v0l-.05-.19H10v.2a0,0,0,0,1,0,0H9.88v0l0-.2H9.75l0,.19a0,0,0,0,1,0,0h0s0,0,0,0v-.2l-.09,0-.07.19,0,0h0a0,0,0,0,1,0,0l0-.19-.09,0L9.23,7H9.17s0,0,0,0l.07-.19-.08,0L9,6.87H9l0,0a0,0,0,0,1,0,0L9,6.65,9,6.59l-.15.14h0l0,0h0a0,0,0,0,1,0,0l.12-.16-.06-.07-.16.11h0l0,0a0,0,0,0,1,0,0l.15-.14-.05-.08-.18.08h0l0,0a0,0,0,0,1,0,0l.16-.11,0-.08-.19.05h0l0,0a0,0,0,0,1,0,0L8.55,6l0-.09-.2,0h0v0h0a0,0,0,0,1,0,0l.19-.05s0-.06,0-.09h-.2s0,0,0,0,0,0,0,0a0,0,0,0,1,0,0l.2,0s0-.06,0-.09l-.19,0a0,0,0,0,1,0,0h0v0a0,0,0,0,1,0,0h.2l0-.09-.18-.07a0,0,0,0,1,0,0v0a0,0,0,0,1,0,0l.19,0,0-.09-.17-.1a0,0,0,0,1,0,0v0h0s0,0,0,0l.18.07,0-.08-.15-.12a0,0,0,0,1,0,0l0,0h0l.17.1.06-.08-.13-.14a0,0,0,0,1,0,0l0,0h0l.16.13L9,4.48l-.11-.16a0,0,0,0,1,0,0l0,0h0l.14.15.08-.05-.08-.18a0,0,0,0,1,0,0h0l0,0h0l.11.17.09,0-.05-.19a0,0,0,0,1,0,0h.07l.08.18.09,0,0-.2a0,0,0,0,1,0,0h.07l.05.19h.09v-.2a0,0,0,0,1,0,0h.05v0l0,.2H10l0-.19a0,0,0,0,1,0,0h0s0,0,0,0v.2l.09,0L10.26,4l0,0h0a0,0,0,0,1,0,0l0,.19.09,0,.1-.17h.06s0,0,0,0l-.07.19.08,0,.12-.16h0l0,0a0,0,0,0,1,0,0l-.1.17.07.06.15-.14h0l0,0h0a0,0,0,0,1,0,0l-.12.16.06.07.16-.11h0l0,0a0,0,0,0,1,0,0L11,4.71l.05.08.18-.08h0l0,0a0,0,0,0,1,0,0l-.16.11,0,.09.19-.06h0V5a0,0,0,0,1,0,0l-.18.08,0,.09.2,0h0v0h0a0,0,0,0,1,0,0l-.19.05s0,.06,0,.09h.2s0,0,0,0,0,0,0,0a0,0,0,0,1,0,0l-.2,0s0,.06,0,.09l.19,0a0,0,0,0,1,0,0h0v0a0,0,0,0,1,0,0h-.2l0,.09.18.07a0,0,0,0,1,0,0V6a0,0,0,0,1,0,0l-.19,0,0,.09.17.1a0,0,0,0,1,0,0M9.8,6.58a1.07,1.07,0,0,0,1.1-.92l-.79,0a.28.28,0,0,1-.19.16Zm-.38-.09a1,1,0,0,0,.3.09l0-.8a.27.27,0,0,1-.15-.18l-.78-.12a1,1,0,0,0,.6,1m-.5-1.4a1.06,1.06,0,0,0-.09.3l.79,0a.28.28,0,0,1,.19-.16l.13-.79a1.06,1.06,0,0,0-1,.62m1.39-.52a1,1,0,0,0-.3-.09l0,.8a.27.27,0,0,1,.15.18l.78.12a1,1,0,0,0-.6-1"/><path class="cls-64" d="M10.31,5.52a.44.44,0,1,1-.44-.44.44.44,0,0,1,.44.44"/><path class="cls-6" d="M10,5.57a.12.12,0,1,1-.06-.16.12.12,0,0,1,.06.16"/><path class="cls-64" d="M15.42,8.42l-.06.13h0L15,8.47l-.11.18.22.21a0,0,0,0,1,0,0L15.07,9h0l-.26-.16L14.63,9l.16.25a0,0,0,0,1,0,0l-.11.09h0l-.22-.22-.18.12.1.28a0,0,0,0,1,0,0l-.13.07h0L14,9.39l-.2.07,0,.3a0,0,0,0,1,0,0l-.14,0h0l-.1-.28-.21,0,0,.3a0,0,0,0,1,0,0h-.15l0,0,0-.3-.21,0-.09.29,0,0-.14,0a0,0,0,0,1,0,0l0-.3-.06,0-.14,0-.16.26h0l-.07,0-.06,0a0,0,0,0,1,0,0l.1-.29-.18-.11-.21.22h0l-.12-.09a0,0,0,0,1,0,0l.16-.26-.15-.15-.25.17h0L11.35,9a0,0,0,0,1,0,0l.21-.22-.11-.18-.28.11h0a1.1,1.1,0,0,1-.07-.14,0,0,0,0,1,0,0l.26-.16a2.07,2.07,0,0,1-.07-.2l-.3,0,0,0,0-.14a0,0,0,0,1,0,0l.28-.1c0-.07,0-.14,0-.21l-.3,0,0,0s0-.1,0-.15a0,0,0,0,1,0,0l.3,0a1.64,1.64,0,0,1,0-.21l-.29-.09a0,0,0,0,1,0,0l0-.14,0,0,.3,0,0-.06.05-.14-.26-.15a0,0,0,0,1,0,0l.06-.13h0l.28.1.11-.18-.22-.21a0,0,0,0,1,0,0L11.42,6h0l.26.16L11.85,6l-.16-.25a0,0,0,0,1,0,0l.11-.09h0l.22.22.18-.12-.1-.28a0,0,0,0,1,0,0l.13-.07h0l.17.26.2-.07,0-.3a0,0,0,0,1,0,0l.14,0h0l.1.28.21,0,0-.3a0,0,0,0,1,0,0h.15l0,0,0,.3.21,0,.1-.29,0,0,.14,0a0,0,0,0,1,0,0l0,.3.06,0,.14,0,.16-.26h0l.07,0,.06,0a0,0,0,0,1,0,0l-.1.29.18.11.21-.22h0l.12.09a0,0,0,0,1,0,0l-.16.26.15.15L15,5.91h0l.1.12a0,0,0,0,1,0,0l-.21.22.11.18.28-.11h0a1.1,1.1,0,0,1,.08.14,0,0,0,0,1,0,0l-.25.16.07.2.3,0,0,0,0,.14a0,0,0,0,1,0,0l-.28.1a2.09,2.09,0,0,1,0,.21l.3,0s0,0,0,0,0,.1,0,.15a0,0,0,0,1,0,0l-.3,0a2.1,2.1,0,0,1,0,.21l.29.09a0,0,0,0,1,0,0s0,.1,0,.14l0,0-.3,0,0,.06,0,.14.26.15a0,0,0,0,1,0,0M11.68,7a1.65,1.65,0,0,0-.06.76l1.13-.33a.4.4,0,0,1,0-.08.51.51,0,0,1,.09-.17l-.53-1.07a1.68,1.68,0,0,0-.65.88m2.06-1.1A1.64,1.64,0,0,0,12.49,6l.65,1a.48.48,0,0,1,.23,0h0l.86-.86a1.55,1.55,0,0,0-.33-.2l-.21-.08m-1,3.16.21,0L13,7.95a.47.47,0,0,1-.19-.17L11.66,8a1.61,1.61,0,0,0,.88,1l.21.08m1.66-2.75-.75,1a.48.48,0,0,1,.05.26l1.05.55,0-.12a1.64,1.64,0,0,0-.4-1.65M13.14,9.14a1.67,1.67,0,0,0,1.54-.89l-1.12-.41a.49.49,0,0,1-.23.13Z"/><path class="cls-6" d="M13.4,7.58a.18.18,0,1,1-.09-.24.18.18,0,0,1,.09.24"/></g><g class="cls-65"><g class="cls-67"><g class="cls-68"><rect class="cls-69" x="7.52" y="8.6" width="0.96" height="0.96" transform="translate(-2.57 14.97) rotate(-77.75)"/></g></g></g><g class="cls-65"><g class="cls-70"><g class="cls-71"><rect class="cls-72" x="7.79" y="8.61" width="0.6" height="0.6" transform="translate(-3.89 7.71) rotate(-42.03)"/></g></g></g><g class="cls-65"><g class="cls-73"><g class="cls-74"><rect class="cls-75" x="7.41" y="8.49" width="1.22" height="1.22" transform="translate(-2.87 3.75) rotate(-22.45)"/></g></g></g><g class="cls-65"><path class="cls-64" d="M16.3,12a.41.41,0,1,1-.41-.4.4.4,0,0,1,.41.4"/><path class="cls-64" d="M17.14,8.28l.1.07a0,0,0,0,1,0,0l-.1.28.11.13.28-.06h0l.05.11a0,0,0,0,1,0,0L17.38,9a1,1,0,0,1,0,.17l.28.09v0s0,.08,0,.12l0,0-.29.05a.9.9,0,0,1-.06.16l.19.22a0,0,0,0,1,0,0l-.07.1h0l-.27-.1L17,10l.06.29a0,0,0,0,1,0,0l-.11.05h0l-.18-.22-.17,0-.1.28h-.14l0,0,0-.29-.16-.06-.22.2h0l-.1-.07a0,0,0,0,1,0,0l.1-.28-.11-.13-.29.06h0l-.05-.11a0,0,0,0,1,0,0l.23-.19a.82.82,0,0,1,0-.17l-.28-.09v0a.94.94,0,0,1,0-.12l0,0,.29-.05a.9.9,0,0,1,.06-.16l-.19-.22a0,0,0,0,1,0,0l.07-.1h0l.27.1L16,8.56l-.06-.29a0,0,0,0,1,0,0l.11-.05h0l.18.22.17,0,.09-.28h.14l0,0,0,.29.16.06.22-.2h0"/><path class="cls-6" d="M16.77,9.42A.29.29,0,1,1,16.63,9a.29.29,0,0,1,.14.38"/><path class="cls-6" d="M16.68,9.24a.18.18,0,1,1-.24-.11.18.18,0,0,1,.24.11"/><path class="cls-64" d="M17.27,12.59l-.18-.06,0,.08.15.11s0,0,0,0l0,0h0L17,12.71l-.05.07.13.14a0,0,0,0,1,0,0h0l0,0h0l-.16-.12-.07.06.11.15a0,0,0,0,1,0,0l0,0h0L16.69,13l-.07.05.08.17a0,0,0,0,1,0,0h-.07l-.11-.15-.08,0,.06.18a0,0,0,0,1,0,0l0,0h0l-.08-.17-.09,0,0,.19a0,0,0,0,1,0,0h-.07l-.06-.19H16v.19a0,0,0,0,1,0,0h-.06l0-.2h-.09l0,.19,0,0H15.7v-.19h-.09l-.06.18,0,0h-.06a0,0,0,0,1,0,0l0-.19-.09,0-.09.17h-.08a0,0,0,0,1,0,0l.06-.18-.08,0-.11.15h0l0,0h0a0,0,0,0,1,0,0l.09-.17L15.06,13l-.14.14h0l0,0s0,0,0,0l.11-.15-.06-.06-.15.11h0l0,0a0,0,0,0,1,0,0l.14-.14-.05-.07-.17.09h0v0h0s0,0,0,0l.16-.11,0-.08-.18.06h0l0,0a0,0,0,0,1,0,0l.17-.09,0-.09-.19,0h0v0h0a0,0,0,0,1,0,0l.18-.06v-.09h-.21s0,0,0,0a0,0,0,0,1,0,0l.19,0s0-.06,0-.09l-.19,0h0v0a0,0,0,0,1,0,0h.19l0-.09-.18-.06h0a0,0,0,0,1,0,0v0l0,0,.19,0,0-.09-.17-.09h0a0,0,0,0,1,0,0v0h0l.18.06,0-.08-.15-.11s0,0,0,0l0,0h0l.17.09.05-.07L14.72,11a0,0,0,0,1,0,0h0l0,0h0l.16.12L15,11l-.11-.15a0,0,0,0,1,0,0l0,0h0l.14.14.07-.05-.08-.17a0,0,0,0,1,0,0h.07l.11.15.08,0-.05-.18a0,0,0,0,1,0,0l0,0h0l.08.17.09,0,0-.19a0,0,0,0,1,0,0h.07l.06.19h.09v-.19a0,0,0,0,1,0,0h.06l0,.2H16l0-.19a0,0,0,0,1,0,0h.06v.19h.09l.06-.18,0,0h.06a0,0,0,0,1,0,0l0,.19.09,0,.09-.17h.08a0,0,0,0,1,0,0l-.06.18.08,0,.11-.16h0l0,0h0a0,0,0,0,1,0,0l-.09.17.07.05.14-.14h0l0,0s0,0,0,0l-.11.16.06.06.16-.11h0l0,0a0,0,0,0,1,0,0l-.14.14.05.07.17-.09h0v0h0s0,0,0,0l-.16.11,0,.08.18-.06h0l0,0a0,0,0,0,1,0,0l-.17.09,0,.09.19,0h0v0h0a0,0,0,0,1,0,0l-.18.06v.09h.21v0a0,0,0,0,1,0,0l-.19,0s0,.06,0,.09l.19,0h0v0a0,0,0,0,1,0,0h-.19l0,.09.18.06h0a0,0,0,0,1,0,0v0l0,0-.19,0,0,.09.17.09h0a0,0,0,0,1,0,0v0h0m-.58,0a1,1,0,0,0,.07-1.14,1,1,0,0,0-.19-.23l-.45.62a.26.26,0,0,1,0,.23Zm-1.48.15.45-.62a.27.27,0,0,1,0-.23l-.55-.52A1,1,0,0,0,15,12.49a1,1,0,0,0,.19.23m1.19.1a1.06,1.06,0,0,0,.23-.19L16,12.18a.26.26,0,0,1-.23,0l-.53.56.19.11a1,1,0,0,0,.95-.06m-1-1.73a1,1,0,0,0-.24.2l.61.45a.26.26,0,0,1,.23,0l.52-.56L16.33,11a1,1,0,0,0-.95.06"/><path class="cls-6" d="M16,12a.12.12,0,1,1-.06-.16A.12.12,0,0,1,16,12"/></g></g></svg>