<svg id="Calque_1" data-name="Calque 1" xmlns="http://www.w3.org/2000/svg" xmlns:xlink="http://www.w3.org/1999/xlink" viewBox="0 0 23.59 15.58"><defs><style>.cls-1{fill:none;}.cls-2{fill:#1c66a3;}.cls-3{fill:#0c4472;}.cls-4{fill:#1e75af;}.cls-5{clip-path:url(#clip-path);}.cls-6{fill:#cbcbcb;}.cls-7{clip-path:url(#clip-path-3);}.cls-8{fill:#00305d;}.cls-9{opacity:0.7;}.cls-10{clip-path:url(#clip-path-4);}.cls-11{opacity:0.18;}.cls-12{opacity:0.4;}.cls-13{clip-path:url(#clip-path-6);}.cls-14{clip-path:url(#clip-path-7);}.cls-15{opacity:0.48;}.cls-16{clip-path:url(#clip-path-9);}.cls-17{fill:#2474b5;}.cls-18{opacity:0.2;}.cls-19{clip-path:url(#clip-path-10);}.cls-20{clip-path:url(#clip-path-11);}.cls-21{clip-path:url(#clip-path-13);}.cls-22{fill:url(#Dégradé_sans_nom_3);}.cls-23{opacity:0.38;}.cls-24{clip-path:url(#clip-path-14);}.cls-25{clip-path:url(#clip-path-15);}.cls-26{opacity:0.6;}.cls-27{clip-path:url(#clip-path-17);}.cls-28{clip-path:url(#clip-path-18);}.cls-29{clip-path:url(#clip-path-20);}.cls-30{fill:url(#Dégradé_sans_nom_5);}.cls-31{opacity:0.58;}.cls-32{clip-path:url(#clip-path-21);}.cls-33{clip-path:url(#clip-path-22);}.cls-34{clip-path:url(#clip-path-24);}.cls-35{clip-path:url(#clip-path-25);}.cls-36{fill:#104f82;}.cls-37{clip-path:url(#clip-path-26);}.cls-38{clip-path:url(#clip-path-27);}.cls-39{fill:url(#Dégradé_sans_nom_8);}.cls-40{opacity:0.08;}.cls-41{clip-path:url(#clip-path-28);}.cls-42{clip-path:url(#clip-path-29);}.cls-43{fill:url(#Dégradé_sans_nom_9);}.cls-44{opacity:0.28;}.cls-45{clip-path:url(#clip-path-30);}.cls-46{clip-path:url(#clip-path-31);}.cls-47{opacity:0.5;}.cls-48{clip-path:url(#clip-path-33);}.cls-49{fill:url(#Dégradé_sans_nom_10);}.cls-50{clip-path:url(#clip-path-34);}.cls-51{clip-path:url(#clip-path-35);}.cls-52{opacity:0.8;}.cls-53{clip-path:url(#clip-path-37);}.cls-54{fill:url(#Dégradé_sans_nom_11);}.cls-55{clip-path:url(#clip-path-38);}.cls-56{clip-path:url(#clip-path-39);}.cls-57{fill:url(#Dégradé_sans_nom_12);}.cls-58{fill:#fff;}</style><clipPath id="clip-path"><rect class="cls-1" width="23.59" height="23.59"/></clipPath><clipPath id="clip-path-3"><path class="cls-1" d="M11.65,0a11.79,11.79,0,1,0,.29,0Z"/></clipPath><clipPath id="clip-path-4"><rect class="cls-1" x="-7.64" y="-6.88" width="33.09" height="37.19"/></clipPath><clipPath id="clip-path-6"><rect class="cls-1" x="12.58" y="-2.46" width="12.74" height="8.73"/></clipPath><clipPath id="clip-path-7"><polygon class="cls-4" points="12.61 1.1 25.26 6.27 18.66 -2.42 12.61 1.1"/></clipPath><clipPath id="clip-path-9"><rect class="cls-1" x="-7.64" y="7.69" width="22.62" height="22.62"/></clipPath><clipPath id="clip-path-10"><rect class="cls-1" x="-0.4" y="8.64" width="8.22" height="7.17"/></clipPath><clipPath id="clip-path-11"><polygon class="cls-1" points="-0.35 8.64 -0.4 15.75 7.81 11.8 -0.35 8.64"/></clipPath><clipPath id="clip-path-13"><rect class="cls-1" x="0.16" y="8.13" width="7.11" height="8.18" transform="translate(-8.53 15.86) rotate(-89.64)"/></clipPath><linearGradient id="Dégradé_sans_nom_3" y1="23.59" x2="1" y2="23.59" gradientTransform="translate(0.16 -152.87) scale(7)" gradientUnits="userSpaceOnUse"><stop offset="0" stop-color="#d1d1d1"/><stop offset="0.2" stop-color="#d1d1d1"/><stop offset="0.99" stop-color="#fff"/><stop offset="1" stop-color="#fff"/></linearGradient><clipPath id="clip-path-14"><rect class="cls-1" x="-0.37" y="1.01" width="12.98" height="10.82"/></clipPath><clipPath id="clip-path-15"><polygon class="cls-2" points="-0.35 8.64 7.81 11.8 12.61 1.1 -0.35 8.64"/></clipPath><clipPath id="clip-path-17"><rect class="cls-1" x="17.29" y="10.31" width="8.14" height="5.86"/></clipPath><clipPath id="clip-path-18"><polygon class="cls-1" points="17.32 10.31 22.92 16.16 25.4 13.12 17.32 10.31"/></clipPath><clipPath id="clip-path-20"><rect class="cls-1" x="18.45" y="9.19" width="5.81" height="8.1" transform="translate(7.98 34.51) rotate(-89.63)"/></clipPath><linearGradient id="Dégradé_sans_nom_5" x1="0" y1="23.59" x2="1" y2="23.59" gradientTransform="translate(18.48 -123.04) scale(5.78)" xlink:href="#Dégradé_sans_nom_3"/><clipPath id="clip-path-21"><rect class="cls-1" x="4.26" y="14.09" width="12.47" height="11.82"/></clipPath><clipPath id="clip-path-22"><polygon class="cls-3" points="4.32 17.88 14.95 25.89 16.74 14.17 4.32 17.88"/></clipPath><clipPath id="clip-path-24"><rect class="cls-1" x="12.55" y="1.1" width="12.74" height="9.26"/></clipPath><clipPath id="clip-path-25"><polygon class="cls-1" points="17.32 10.31 25.26 6.27 12.61 1.1 17.32 10.31"/></clipPath><clipPath id="clip-path-26"><rect class="cls-1" x="17.31" y="6.22" width="8.14" height="6.9"/></clipPath><clipPath id="clip-path-27"><polygon class="cls-1" points="25.26 6.27 17.32 10.31 25.4 13.12 25.4 13.1 25.26 6.27 25.26 6.27"/></clipPath><linearGradient id="Dégradé_sans_nom_8" x1="0" y1="23.58" x2="1" y2="23.58" gradientTransform="translate(17.95 -152.78) scale(6.89)" xlink:href="#Dégradé_sans_nom_3"/><clipPath id="clip-path-28"><rect class="cls-1" x="9.84" y="1.08" width="7.54" height="9.23"/></clipPath><clipPath id="clip-path-29"><polygon class="cls-1" points="9.86 7.22 17.32 10.31 12.61 1.1 9.86 7.22"/></clipPath><linearGradient id="Dégradé_sans_nom_9" x1="0" y1="23.58" x2="1" y2="23.58" gradientTransform="translate(9.01 -213.13) scale(9.28)" xlink:href="#Dégradé_sans_nom_3"/><clipPath id="clip-path-30"><rect class="cls-1" x="4.32" y="11.78" width="12.44" height="6.18"/></clipPath><clipPath id="clip-path-31"><polygon class="cls-1" points="4.32 17.88 16.74 14.17 7.81 11.8 4.32 17.88"/></clipPath><clipPath id="clip-path-33"><polygon class="cls-1" points="4.35 11.78 4.32 17.88 16.71 17.96 16.75 11.86 4.49 11.78 4.35 11.78"/></clipPath><linearGradient id="Dégradé_sans_nom_10" x1="0" y1="23.59" x2="1" y2="23.59" gradientTransform="translate(7.47 -129.32) scale(6.11)" xlink:href="#Dégradé_sans_nom_3"/><clipPath id="clip-path-34"><rect class="cls-1" x="9.82" y="7.22" width="7.52" height="6.95"/></clipPath><clipPath id="clip-path-35"><polygon class="cls-1" points="16.74 14.17 17.32 10.31 9.86 7.22 16.74 14.17"/></clipPath><clipPath id="clip-path-37"><rect class="cls-1" x="10.13" y="6.96" width="6.91" height="7.48" transform="translate(2.79 24.21) rotate(-89.62)"/></clipPath><linearGradient id="Dégradé_sans_nom_11" x1="0" y1="23.59" x2="1" y2="23.59" gradientTransform="translate(10.1 -151.78) scale(6.89)" xlink:href="#Dégradé_sans_nom_3"/><clipPath id="clip-path-38"><rect class="cls-1" x="7.79" y="7.21" width="8.99" height="6.96"/></clipPath><clipPath id="clip-path-39"><polygon class="cls-1" points="7.81 11.8 16.74 14.17 9.86 7.22 7.81 11.8"/></clipPath><linearGradient id="Dégradé_sans_nom_12" x1="0" y1="23.58" x2="1" y2="23.58" gradientTransform="translate(8.8 -151.77) scale(6.89)" xlink:href="#Dégradé_sans_nom_3"/></defs><title>01-Finance</title><g class="cls-5"><g class="cls-5"><path class="cls-6" d="M11.79,23.59A11.79,11.79,0,1,0,0,11.79,11.79,11.79,0,0,0,11.79,23.59"/></g><g class="cls-7"><path class="cls-8" d="M11.82,23.61A11.84,11.84,0,1,0,0,11.76,11.84,11.84,0,0,0,11.82,23.61"/><g class="cls-9"><g class="cls-10"><g class="cls-10"><g class="cls-12"><g class="cls-13"><polygon class="cls-4" points="12.61 1.1 25.26 6.27 18.66 -2.42 12.61 1.1"/></g></g><g class="cls-15"><g class="cls-16"><polygon class="cls-17" points="-0.4 15.75 -0.46 26.2 7.81 11.8 7.81 11.8 -0.4 15.75"/></g></g><g class="cls-18"><g class="cls-19"><g class="cls-20"><g class="cls-9"><g class="cls-19"><g class="cls-21"><rect class="cls-22" x="0.11" y="8.08" width="7.22" height="8.27" transform="translate(-8.53 15.85) rotate(-89.63)"/></g></g></g></g></g></g><g class="cls-23"><g class="cls-24"><polygon class="cls-2" points="-0.35 8.64 7.81 11.8 12.61 1.1 -0.35 8.64"/></g></g><g class="cls-23"><g class="cls-27"><g class="cls-28"><g class="cls-9"><g class="cls-27"><g class="cls-29"><rect class="cls-30" x="18.39" y="9.15" width="5.92" height="8.17" transform="translate(7.98 34.51) rotate(-89.63)"/></g></g></g></g></g></g><g class="cls-31"><g class="cls-32"><polygon class="cls-3" points="4.32 17.88 14.95 25.89 16.74 14.17 4.32 17.88"/></g></g><g class="cls-23"><g class="cls-34"><g class="cls-35"><rect class="cls-36" x="14.29" y="-0.65" width="9.29" height="12.71" transform="translate(13.11 24.6) rotate(-89.63)"/></g></g></g><g class="cls-11"><g class="cls-37"><g class="cls-38"><rect class="cls-39" x="17.92" y="5.63" width="6.9" height="8.13" transform="translate(11.53 30.99) rotate(-89.63)"/></g></g></g><g class="cls-40"><g class="cls-41"><g class="cls-42"><rect class="cls-43" x="8.96" y="1.94" width="9.26" height="7.52" transform="translate(7.8 19.26) rotate(-89.63)"/></g></g></g><g class="cls-44"><g class="cls-45"><g class="cls-46"><g class="cls-47"><g class="cls-45"><g class="cls-48"><rect class="cls-49" x="7.4" y="8.63" width="6.26" height="12.47" transform="matrix(0.01, -1, 1, 0.01, -4.4, 25.31)"/></g></g></g></g></g></g><g class="cls-31"><g class="cls-50"><g class="cls-51"><g class="cls-52"><g class="cls-50"><g class="cls-53"><rect class="cls-54" x="10.08" y="6.91" width="7" height="7.57" transform="translate(2.8 24.21) rotate(-89.63)"/></g></g></g></g></g></g><g class="cls-44"><g class="cls-55"><g class="cls-56"><rect class="cls-57" x="8.77" y="6.21" width="7.01" height="8.97" transform="translate(1.5 22.9) rotate(-89.63)"/></g></g></g></g></g></g><rect class="cls-58" x="19.93" y="6.33" width="1.12" height="5.29"/><path class="cls-58" d="M19.68,6.71v4.53H18.8l-.6.49L18,11.51,18,11.42l0,0,0,0,0,0-.17-.14-.34-.28-.68-.57L15.31,9.2l-2.76-2.3H10.81l0,0L10.71,7l-.17.17a3.55,3.55,0,0,1-1.66.89,2.21,2.21,0,0,1-.46,0A.94.94,0,0,1,8,8a.39.39,0,0,1-.21-.29.7.7,0,0,1,0-.2V7.46l.06-.06L9.18,5.93l.33-.37.17-.18.08-.09.08-.08A1.25,1.25,0,0,1,10.22,5a.77.77,0,0,1,.2,0h2.2a4.2,4.2,0,0,1,.94.18,2,2,0,0,1,.42.19l.41.27.82.55.85.58Z"/><path class="cls-58" d="M18.17,12.39a.46.46,0,0,1,0,.17l0,.07-.06.08a1.92,1.92,0,0,1-.28.3,1.45,1.45,0,0,1-.71.37.73.73,0,0,1-.37,0l-.17-.09-.07-.06-.07-.07c-.6-.6-1.06-1.18-1.66-1.77a2.89,2.89,0,0,0,0-.42,3.1,3.1,0,0,0-3-3,3.1,3.1,0,0,0-3,3,3.1,3.1,0,0,0,3,3,2.82,2.82,0,0,0,1.34-.33c.18.15.37.16.56.31l.53.41c.18.13.36.26.56.38l.11.06a1.28,1.28,0,0,1-.16.39l-.08.1,0,0-.05,0-.2.18h-.06l-.09,0-.18,0a1.46,1.46,0,0,1-.36,0,1,1,0,0,1-.34-.08l-.08,0-.09,0-.17-.09c-.46-.25-.91-.52-1.36-.79l-.14.23c.45.27.91.54,1.37.79l.17.1.05,0c-.14.15-.29.31-.44.45a.9.9,0,0,1-.67.18h-.05l-.09,0-.19-.09L11.22,16l-.67-.33V15.4c0-.11,0-.23,0-.34s0-.45-.07-.68c0-.06,0-.11,0-.17a.86.86,0,0,0-.05-.19.61.61,0,0,0-.11-.18.56.56,0,0,0-.18-.13.79.79,0,0,0-.39-.06l-.14,0c0-.11,0-.21.05-.32v-.05h0v0a.18.18,0,0,0,0,0,.47.47,0,0,0,0-.12.67.67,0,0,0-.11-.19,1.09,1.09,0,0,0-.31-.26,1,1,0,0,0-.39-.13.77.77,0,0,0-.42.08l-.06,0s0-.08,0-.13A1,1,0,0,0,8.09,12a1,1,0,0,0-.22-.2.82.82,0,0,0-.29-.11,1.39,1.39,0,0,0-.57,0,1,1,0,0,0-.28.11A.57.57,0,0,0,6.5,12l0,0v0l0,.06,0,.12-.05.14L5.27,11.14l-1.19-.37L5.45,5.34l1.39.4H9L7.65,7.21l0,0,0,0s0,0,0,0l0,.06v0a.57.57,0,0,0,0,.07.92.92,0,0,0,0,.29.69.69,0,0,0,.12.28.67.67,0,0,0,.23.2,1.21,1.21,0,0,0,.54.11,2.51,2.51,0,0,0,.52,0A3.36,3.36,0,0,0,9.9,8a4.25,4.25,0,0,0,.82-.6l.18-.18,0,0h1.52L15.14,9.4l1.36,1.14.68.57.34.28.17.14,0,0,0,0,.07.08a2,2,0,0,1,.23.34.9.9,0,0,1,.11.36"/><path class="cls-58" d="M16.45,13.53a.64.64,0,0,1,0,.08,1.22,1.22,0,0,1,0,.15,1.07,1.07,0,0,1-.09.28.89.89,0,0,1-.16.24l-.11.1-.13.09a.93.93,0,0,1-.53.21,1.26,1.26,0,0,1-.55-.21,6.39,6.39,0,0,1-.53-.36l-.52-.4-.48-.39a2.85,2.85,0,0,0,1.16-1.63l1.68,1.65a1.19,1.19,0,0,0,.26.21"/><path class="cls-58" d="M14.16,9.75V12a2.34,2.34,0,0,1-.43.65v-2.6Z"/><path class="cls-58" d="M13.92,9.24l-.18.56-.11-.16L11.29,11.5v-.95l-1.71,1.1a.14.14,0,0,1-.15-.23l2.13-1.37v.88l1.91-1.53-.14-.19Z"/><path class="cls-58" d="M13.56,10.2v2.64a2.62,2.62,0,0,1-.43.31V10.51Z"/><path class="cls-58" d="M13,10.64v2.6a2.75,2.75,0,0,1-.43.16V11Z"/><path class="cls-58" d="M12.38,11.08v2.36a2.94,2.94,0,0,1-.43.06V11.39Z"/><path class="cls-58" d="M11.79,11.51v2h0l-.39,0V11.83Z"/><path class="cls-58" d="M11.2,12v1.5a2.7,2.7,0,0,1-.43-.12V11.2l.35-.21v1Z"/><path class="cls-58" d="M10.62,11.3v2a2.57,2.57,0,0,1-.43-.24V11.56Z"/><path class="cls-58" d="M10.29,15.58v.21l0,.06a.44.44,0,0,1,0,.11.24.24,0,0,1-.14.12H9.86L9.59,16a1.24,1.24,0,0,1-.46-.24.55.55,0,0,1-.19-.38,1.86,1.86,0,0,0,.15-.28l.14-.33c0-.11.09-.23.13-.34s.1-.3.14-.45A.75.75,0,0,1,10,14a.3.3,0,0,1,.16.17.65.65,0,0,1,0,.13l0,.16c0,.22.05.43.06.65s0,.22,0,.33Z"/><path class="cls-58" d="M10,11.66V12.9a2.38,2.38,0,0,1-.65-.84Z"/><path class="cls-58" d="M9.35,13.27h0v0c0,.11,0,.23-.06.34a5.27,5.27,0,0,1-.19.67c0,.11-.08.22-.13.33L8.84,15a1.34,1.34,0,0,1-.15.28.23.23,0,0,1-.09.07l-.12,0-.16,0-.08,0H8.16a.66.66,0,0,1-.26-.13.82.82,0,0,1-.19-.24,1,1,0,0,1-.07-.15l0-.11v0l0-.12.21-.47a4.87,4.87,0,0,0,.37-1V13a.65.65,0,0,1,.5-.21.67.67,0,0,1,.28.1.82.82,0,0,1,.24.2.4.4,0,0,1,.07.12.26.26,0,0,1,0,.05"/><path class="cls-58" d="M8,12.54A1.73,1.73,0,0,1,8,13a4.57,4.57,0,0,1-.35.94l-.22.47-.05.12,0,.06h0l-.05,0-.1,0H7l-.22,0a1.12,1.12,0,0,1-.38-.25.74.74,0,0,1-.16-.81h0v0l0-.06,0-.12.09-.24.18-.48.18-.47a.46.46,0,0,1,.32-.2,1.17,1.17,0,0,1,.46,0,.54.54,0,0,1,.19.07.68.68,0,0,1,.16.14.71.71,0,0,1,.15.4"/><rect class="cls-58" x="0.68" y="7.22" width="6.32" height="1.26" transform="translate(-4.71 9.66) rotate(-75.88)"/></g></g></svg>